<?xml version="1.0" standalone="no"?>
<!DOCTYPE svg PUBLIC "-//W3C//DTD SVG 20010904//EN"
 "http://www.w3.org/TR/2001/REC-SVG-20010904/DTD/svg10.dtd">
<svg version="1.0" xmlns="http://www.w3.org/2000/svg"
 width="981.000000pt" height="1280.000000pt" viewBox="0 0 981.000000 1280.000000"
 preserveAspectRatio="xMidYMid meet">
<metadata>
Created by potrace 1.15, written by Peter Selinger 2001-2017
</metadata>
<g transform="translate(0.000000,1280.000000) scale(0.100000,-0.100000)"
fill="rgb(0, 255, 26)" stroke="none">
<path d="M1440 12785 c-4 -5 -18 -41 -30 -80 -12 -38 -44 -138 -71 -220 -27
-83 -49 -162 -49 -177 0 -14 -11 -40 -25 -56 -20 -24 -25 -41 -25 -86 0 -36
-7 -71 -19 -94 -38 -76 -45 -143 -42 -459 2 -187 -2 -350 -10 -430 -11 -110
-10 -132 2 -158 12 -23 21 -30 42 -28 17 1 27 -3 27 -12 0 -7 6 -15 13 -18 22
-8 -2 -20 -38 -19 -40 2 -41 -3 -25 -89 6 -30 11 -99 11 -155 0 -80 -4 -112
-21 -155 -12 -30 -40 -139 -62 -244 -41 -200 -44 -252 -12 -300 9 -14 19 -55
22 -92 5 -62 4 -66 -14 -59 -65 27 -62 -9 10 -121 56 -87 114 -212 123 -268
l5 -32 -68 -7 c-38 -3 -161 -11 -274 -16 -223 -12 -338 -27 -500 -66 -118 -29
-270 -78 -315 -103 l-30 -16 25 -3 c14 -1 121 15 237 37 346 65 424 74 673 75
258 1 318 -10 364 -65 14 -17 26 -35 26 -40 0 -24 -54 -40 -171 -50 -377 -31
-695 -72 -835 -109 -151 -40 -297 -96 -325 -127 -31 -32 -17 -30 128 11 285
82 637 134 964 143 223 6 263 3 272 -21 9 -23 -4 -56 -22 -56 -9 0 -22 -5 -27
-10 -6 -6 -69 -22 -140 -35 -224 -43 -438 -106 -554 -164 -194 -96 -340 -173
-350 -186 -29 -35 2 -31 95 11 332 153 468 202 695 250 148 31 301 42 317 23
11 -14 17 -54 15 -97 -2 -25 2 -23 -162 -82 -249 -91 -640 -319 -977 -568
-134 -100 -276 -230 -300 -275 -17 -34 -11 -46 12 -23 9 9 20 16 25 16 5 0 47
32 95 70 175 144 532 392 752 523 151 91 357 174 498 202 59 11 72 11 84 0 12
-12 12 -21 2 -55 -10 -35 -19 -45 -56 -61 -24 -10 -67 -37 -96 -59 -30 -22
-58 -40 -62 -40 -5 0 -38 -27 -74 -60 -66 -62 -128 -100 -163 -100 -11 0 -20
-7 -20 -15 0 -8 -59 -72 -131 -142 -321 -313 -642 -711 -627 -779 6 -26 70 42
243 256 221 275 502 544 707 677 137 89 251 145 285 141 27 -3 28 -5 26 -58
-15 -403 -8 -455 98 -696 27 -62 49 -119 49 -127 0 -8 4 -17 9 -19 5 -1 14
-50 20 -108 6 -58 19 -136 30 -174 19 -62 20 -88 14 -295 -9 -353 19 -559 107
-780 12 -30 31 -64 43 -75 12 -12 50 -71 85 -131 35 -61 91 -149 125 -195 34
-47 85 -121 112 -165 36 -58 93 -123 211 -240 89 -88 170 -176 180 -197 10
-20 31 -53 45 -75 15 -21 59 -100 99 -176 68 -129 121 -198 179 -237 23 -15
33 -49 121 -380 30 -111 42 -238 38 -402 -2 -110 -7 -150 -17 -160 -12 -11
-13 -10 -8 5 5 14 2 16 -17 11 -19 -4 -26 -1 -31 15 -3 12 -30 39 -58 60 -53
39 -194 182 -212 214 -17 31 -93 50 -211 55 -128 5 -174 -9 -201 -61 -21 -42
-13 -152 19 -242 29 -81 87 -203 99 -211 5 -3 9 -22 9 -42 0 -60 85 -169 193
-249 28 -20 50 -46 54 -61 3 -15 17 -40 30 -55 12 -16 23 -32 23 -36 0 -4 27
-27 60 -51 36 -26 59 -49 56 -57 -8 -20 32 -51 76 -58 21 -4 51 -17 66 -30
l26 -22 -18 -109 c-9 -60 -26 -255 -36 -434 -21 -356 -29 -402 -86 -486 -41
-60 -67 -75 -152 -82 -49 -4 -70 -1 -96 13 -34 18 -34 18 -88 -8 -41 -20 -59
-36 -72 -64 -10 -20 -30 -53 -45 -73 -40 -51 -81 -124 -81 -144 0 -10 -18 -48
-40 -85 -47 -80 -62 -144 -45 -194 7 -20 33 -64 58 -99 l45 -64 83 -18 c107
-23 172 -41 198 -56 15 -7 32 -8 59 -1 51 14 93 1 114 -35 9 -16 24 -71 32
-122 9 -51 25 -111 36 -132 23 -45 74 -76 142 -86 53 -8 78 -20 78 -38 0 -17
47 -49 60 -41 6 4 46 -6 90 -22 64 -23 82 -25 92 -15 10 10 10 15 -2 22 -25
16 -6 11 88 -20 99 -33 155 -37 307 -20 152 17 163 20 215 61 27 21 55 39 62
39 9 0 9 -3 -2 -10 -8 -5 -11 -12 -7 -17 13 -13 40 12 52 48 7 19 19 35 28 37
10 2 17 9 17 16 0 7 18 34 40 59 22 25 40 49 40 54 0 5 11 24 25 42 13 19 27
53 31 78 3 24 10 46 15 49 5 3 9 16 9 29 0 12 6 25 14 28 7 3 16 26 18 51 3
24 13 52 22 61 9 9 16 23 16 30 0 18 69 121 143 215 33 41 66 89 73 107 8 17
18 35 24 38 6 4 24 35 40 71 16 35 33 64 38 64 5 0 13 17 17 38 4 20 15 47 26
58 20 22 89 169 89 192 0 6 11 12 25 12 22 0 24 3 19 30 -6 26 -3 30 14 30 27
0 59 -42 72 -94 17 -64 23 -75 27 -48 6 30 20 28 38 -8 9 -17 19 -30 24 -30 5
0 20 -18 32 -40 35 -57 226 -259 253 -266 13 -3 30 -17 37 -31 8 -14 27 -31
42 -38 l29 -12 -31 -35 c-37 -43 -175 -112 -251 -128 -162 -31 -256 -163 -267
-371 -7 -113 3 -149 59 -222 85 -110 135 -136 262 -137 84 0 90 -2 122 -30 39
-34 104 -54 151 -47 35 6 97 34 192 87 39 22 66 30 105 30 85 1 187 19 223 41
18 11 33 18 33 15 0 -3 39 9 86 25 81 28 358 79 430 79 17 0 45 -7 61 -15 18
-9 81 -19 151 -24 113 -9 125 -12 194 -49 40 -22 105 -50 143 -62 39 -13 77
-29 86 -36 8 -8 24 -14 35 -14 31 0 82 -30 167 -98 95 -76 218 -149 312 -186
82 -32 181 -86 211 -115 12 -11 25 -17 28 -14 3 3 37 -9 76 -26 59 -28 92 -35
208 -47 75 -8 171 -19 212 -24 41 -6 168 -17 283 -25 114 -8 217 -20 229 -26
27 -15 142 -6 217 16 29 9 90 38 136 64 45 26 114 58 153 71 40 14 72 28 72
33 0 4 27 36 59 71 33 35 70 84 82 107 12 24 46 79 75 123 30 43 59 97 65 120
15 54 28 207 29 324 0 105 -12 143 -64 207 -20 24 -37 58 -41 81 -12 74 -15
82 -34 87 -23 6 -59 113 -95 288 -13 63 -31 136 -40 162 -24 72 -17 245 19
422 8 39 21 138 30 220 8 83 20 175 25 205 5 30 14 192 20 360 5 168 15 392
20 498 9 181 8 205 -15 385 -14 106 -32 233 -41 282 -20 111 -79 286 -138 414
-25 53 -61 142 -81 198 -19 56 -55 150 -80 208 -72 169 -143 370 -176 500 -17
66 -55 194 -84 285 -30 91 -86 279 -125 419 -64 235 -74 262 -126 349 -35 59
-69 134 -91 201 -19 58 -50 134 -68 169 -19 34 -32 62 -29 62 2 0 -1 10 -8 23
-7 12 -11 26 -10 31 2 5 -4 16 -11 25 -8 9 -24 34 -35 57 -49 97 -314 412
-368 436 -12 6 -25 21 -28 34 -3 12 -16 26 -28 30 -12 3 -51 34 -88 68 -127
117 -179 159 -242 198 -35 22 -67 47 -71 54 -4 8 -18 14 -31 14 -12 0 -31 7
-42 15 -10 8 -33 15 -51 15 -17 0 -35 5 -39 11 -3 6 -15 8 -26 6 -11 -3 -44 3
-75 14 -31 10 -64 19 -75 19 -10 0 -18 6 -18 13 0 7 -165 66 -418 150 -238 78
-451 154 -495 177 -42 21 -77 36 -77 32 -1 -4 -9 4 -20 17 -11 13 -35 31 -52
40 -18 9 -80 55 -138 101 -58 47 -131 100 -163 118 -31 18 -74 47 -95 66 -22
20 -52 35 -74 39 -21 3 -89 28 -150 55 -62 28 -128 56 -145 62 -18 7 -33 16
-33 21 0 5 -8 9 -18 9 -11 0 -18 8 -19 20 -3 30 -45 119 -87 181 -35 52 -35
54 -15 61 26 10 15 28 -17 28 -17 0 -27 8 -34 25 -15 39 -170 206 -206 221
-20 9 -43 32 -64 65 -17 29 -61 88 -96 132 -35 43 -64 84 -64 90 0 7 -16 37
-35 67 -19 30 -35 61 -35 68 0 18 65 96 178 215 53 55 82 93 78 102 -3 8 1 30
9 49 8 20 15 49 15 67 0 28 2 31 25 25 20 -5 25 -3 25 12 0 10 9 44 19 75 11
31 23 77 26 102 8 52 56 125 83 125 13 0 24 23 46 98 16 53 39 117 51 142 39
77 64 206 90 459 37 362 32 784 -10 830 -8 10 -15 23 -15 30 0 21 -59 90 -91
106 -15 8 -41 15 -58 15 -19 0 -150 -60 -348 -158 -175 -87 -349 -171 -388
-187 -38 -16 -130 -69 -203 -117 -73 -49 -143 -93 -155 -97 -13 -5 -70 -53
-128 -106 -57 -53 -118 -108 -136 -122 l-32 -25 -56 26 c-30 13 -55 29 -55 34
0 5 -36 33 -80 61 -134 88 -274 126 -570 156 -80 8 -181 22 -225 32 -100 21
-173 20 -250 -6 l-60 -20 -24 22 c-33 30 -111 138 -111 153 0 7 -9 19 -20 27
-11 8 -17 17 -13 21 4 3 -5 19 -20 34 -33 34 -126 188 -134 222 -3 14 -16 39
-29 55 -12 17 -34 58 -48 93 -14 35 -39 82 -56 104 -16 23 -30 50 -30 60 0 10
-4 18 -10 18 -5 0 -39 25 -74 55 -76 64 -124 95 -148 95 -9 0 -29 11 -43 24
-16 15 -50 30 -82 36 -64 14 -291 10 -303 -5z m144 -435 c33 -121 88 -285 127
-374 22 -49 39 -94 39 -100 -1 -20 -47 45 -60 83 -13 41 -46 89 -54 80 -3 -3
1 -27 9 -54 l15 -50 -26 30 c-57 68 -124 245 -124 329 0 25 6 38 20 46 15 8
20 21 20 52 0 55 13 39 34 -42z m71 60 c-4 -6 -1 -17 5 -25 10 -12 9 -15 -9
-15 -20 0 -30 28 -14 43 10 11 25 8 18 -3z m163 -268 c34 -59 70 -131 81 -161
10 -29 23 -56 29 -60 23 -14 54 -102 48 -136 -5 -27 0 -40 33 -81 31 -39 71
-112 71 -129 0 -2 -9 -1 -20 2 -10 3 -33 29 -50 59 -17 30 -46 72 -65 93 -20
22 -35 49 -35 63 0 31 -39 163 -74 248 -26 64 -131 246 -148 256 -18 11 -21
-6 -5 -24 10 -10 17 -23 17 -29 0 -6 16 -44 34 -84 19 -41 38 -92 41 -114 l6
-40 -25 28 c-14 15 -26 34 -26 42 0 8 -11 25 -24 39 -31 30 -60 127 -53 172 5
27 2 34 -11 34 -15 1 -14 3 3 16 19 15 23 12 66 -35 25 -28 73 -99 107 -159z
m2 100 c0 -15 -2 -15 -10 -2 -13 20 -13 33 0 25 6 -3 10 -14 10 -23z m-320
-51 c5 -11 10 -35 11 -53 1 -60 23 -123 40 -120 9 1 19 -4 23 -13 3 -9 0 -15
-9 -15 -8 0 -15 -4 -15 -10 0 -56 -78 108 -87 182 -5 40 -3 48 10 48 9 0 21
-9 27 -19z m730 -1 c0 -11 -4 -20 -10 -20 -5 0 -10 9 -10 20 0 11 5 20 10 20
6 0 10 -9 10 -20z m130 -217 c0 -8 -5 -11 -10 -8 -13 8 -60 81 -60 92 1 14 70
-70 70 -84z m-911 13 c6 -25 11 -53 10 -63 -1 -25 -24 31 -33 80 -10 53 9 39
23 -17z m3381 39 c0 -2 -17 -13 -37 -24 -21 -10 -49 -28 -62 -40 -13 -12 -30
-21 -37 -21 -7 0 -21 -3 -31 -6 -38 -14 5 17 78 56 72 38 89 45 89 35z m-3236
-124 c5 -23 6 -44 2 -48 -11 -12 -19 6 -18 42 1 25 -3 35 -14 35 -8 0 -12 5
-9 11 13 20 30 2 39 -40z m86 0 c16 -31 12 -66 -10 -86 -24 -22 -25 -20 -35
25 -7 34 -7 35 12 18 30 -27 35 -22 18 18 -18 43 -18 44 -5 44 5 0 14 -9 20
-19z m158 -78 c87 -185 85 -226 -5 -105 -74 98 -89 131 -52 111 23 -12 23 -15
3 59 -4 12 -2 22 3 22 5 0 28 -39 51 -87z m182 57 c0 -5 -9 -10 -21 -10 -11 0
-17 5 -14 10 3 6 13 10 21 10 8 0 14 -4 14 -10z m2500 1 c0 -5 -25 -26 -56
-46 -31 -21 -59 -46 -61 -56 -7 -23 -19 -24 -27 -2 -8 20 -6 22 74 72 75 46
70 44 70 32z m-3010 -28 c12 -16 38 -53 58 -83 22 -32 46 -56 59 -58 20 -3
122 -103 216 -211 25 -30 50 -52 53 -48 4 4 -4 20 -18 35 -14 15 -35 43 -46
63 -11 20 -26 46 -34 59 -10 17 -10 24 -1 27 8 3 -4 29 -33 73 -26 38 -44 74
-43 79 6 17 81 -90 94 -134 16 -52 70 -132 94 -140 11 -3 26 -17 35 -30 9 -14
25 -25 36 -25 21 0 80 -66 80 -90 0 -17 66 -57 86 -52 6 1 15 -10 18 -24 6
-24 8 -25 20 -9 9 13 15 15 20 7 10 -17 41 -15 56 3 10 12 10 19 2 27 -18 18
-16 44 1 29 32 -26 22 6 -20 62 -81 110 -117 203 -76 195 9 -2 27 -23 40 -48
25 -48 155 -198 213 -246 38 -32 33 -19 -17 43 -38 47 -40 53 -15 53 9 0 55
-38 102 -84 129 -126 150 -151 150 -177 0 -30 26 -69 46 -69 10 0 13 -7 8 -24
-5 -20 -1 -24 25 -29 l31 -6 -1 -113 c-1 -159 -12 -175 -33 -48 -9 57 -23 115
-31 129 -7 15 -23 44 -34 66 -26 50 -97 132 -106 123 -12 -11 5 -46 24 -51 25
-6 57 -94 77 -210 19 -105 14 -257 -9 -322 l-14 -40 -5 91 c-7 126 -62 247
-85 188 -3 -9 -1 -25 5 -35 7 -10 12 -48 12 -85 0 -52 -4 -72 -21 -92 l-21
-27 2 90 c3 133 -8 205 -31 205 -27 0 -31 -14 -38 -128 -4 -63 -10 -107 -17
-109 -6 -2 -21 18 -32 44 l-21 48 6 -52 c4 -35 2 -53 -5 -53 -10 0 -14 16 -26
90 -1 9 -9 2 -19 -17 -22 -41 -30 -41 -57 -2 -30 42 -36 30 -10 -21 35 -69 15
-57 -39 23 -28 42 -55 78 -61 82 -13 8 -13 -11 0 -36 16 -29 -4 -24 -43 11
-37 32 -63 40 -53 15 3 -8 9 -23 13 -32 5 -14 1 -13 -24 5 -23 16 -33 19 -36
10 -3 -9 -13 -6 -33 10 -31 24 -108 62 -127 62 -6 0 11 -23 38 -50 l50 -50
-60 23 c-33 13 -91 45 -129 71 -38 26 -71 44 -74 41 -3 -3 -3 -7 -1 -9 25 -23
348 -260 363 -267 34 -14 110 -33 123 -30 7 1 26 -5 42 -14 38 -19 41 -19 41
3 1 11 7 6 18 -15 13 -25 21 -30 32 -23 23 14 29 12 23 -9 -3 -13 14 -40 57
-87 34 -37 72 -88 85 -113 12 -26 32 -57 43 -71 18 -22 21 -23 27 -7 11 27 25
20 25 -14 0 -39 -64 -231 -91 -276 -22 -36 -43 -42 -53 -17 -3 9 -6 66 -6 127
0 95 -3 117 -20 142 -11 17 -20 37 -20 46 0 37 -124 151 -226 208 l-41 23
-169 -22 c-132 -18 -194 -21 -286 -16 -83 4 -118 2 -120 -6 -3 -7 -13 -5 -31
7 -27 17 -31 15 -28 -18 1 -9 -5 -20 -13 -23 -10 -4 -16 -18 -16 -39 0 -19 -4
-37 -10 -40 -16 -10 -12 -34 10 -65 21 -29 18 -60 -5 -60 -8 0 -30 17 -50 38
l-37 37 4 -68 c4 -67 5 -69 56 -118 54 -52 68 -89 33 -89 -12 0 -40 24 -67 55
-26 30 -54 55 -61 55 -22 0 -15 -41 16 -89 17 -25 37 -79 46 -119 17 -74 15
-117 -3 -72 -14 37 -31 47 -85 55 -67 10 -73 26 -57 142 7 51 10 100 6 109 -6
15 -8 15 -26 -1 -11 -10 -20 -16 -20 -14 1 39 42 223 54 240 8 13 19 52 25 87
8 50 16 69 41 92 44 42 62 89 47 129 -14 38 -4 50 60 71 60 20 82 51 95 138 9
58 15 72 29 72 10 0 23 9 29 20 13 24 45 19 70 -10 8 -10 27 -25 43 -35 26
-17 27 -17 27 3 0 12 5 24 10 27 16 10 12 25 -5 19 -8 -4 -15 -1 -15 5 0 6 -5
11 -12 11 -17 0 -58 41 -58 58 0 9 10 6 31 -12 21 -18 42 -26 69 -26 43 0 60
18 60 65 0 22 -3 26 -17 20 -32 -12 -36 -10 -46 23 -10 32 -21 40 -32 22 -12
-19 -26 -10 -41 26 -12 27 -12 39 -4 48 8 8 15 6 26 -8 14 -19 14 -19 14 1 0
39 -17 67 -78 131 -44 45 -67 62 -87 62 -15 0 -24 4 -20 10 3 6 15 10 26 10
26 0 24 6 -12 48 -20 22 -27 38 -20 40 11 4 47 -18 113 -70 15 -12 31 -18 35
-15 10 11 -45 119 -57 112 -5 -3 -27 6 -47 20 -21 14 -43 25 -50 25 -7 0 -13
9 -13 19 0 11 -10 31 -22 45 -26 28 -64 114 -54 123 3 4 19 -6 34 -20 16 -15
31 -24 35 -21 3 3 27 -12 54 -34 39 -33 107 -72 127 -72 2 0 3 15 2 33 -2 22
-7 31 -17 29 -8 -2 -15 -8 -17 -13 -8 -22 -32 -4 -78 58 -50 69 -83 128 -84
151 0 21 28 13 50 -15z m3765 -32 c-31 -90 -109 -175 -217 -238 -78 -45 -95
-60 -58 -50 32 8 24 -4 -40 -68 -33 -33 -60 -63 -60 -66 0 -4 8 -9 17 -11 11
-2 -30 -30 -102 -72 -194 -112 -435 -279 -421 -293 6 -7 51 21 86 53 14 12 59
41 100 65 41 23 79 48 83 55 4 8 22 14 40 14 40 0 177 73 258 137 34 26 80 61
103 77 22 16 67 49 99 73 58 42 77 51 77 35 0 -5 -41 -53 -90 -108 -95 -104
-178 -214 -162 -214 5 0 41 18 78 40 86 50 119 55 74 10 -11 -11 -20 -32 -20
-47 -1 -24 -2 -25 -11 -11 -9 16 -13 16 -59 -2 -70 -28 -167 -78 -175 -90 -9
-15 36 -12 65 5 14 8 39 14 57 15 17 0 35 5 39 11 3 6 17 9 30 6 25 -4 65 18
157 88 26 20 47 32 47 27 0 -12 -129 -132 -141 -132 -5 0 -21 -27 -37 -59 -20
-41 -24 -57 -13 -53 25 9 -28 -73 -79 -123 -60 -59 -83 -56 -39 5 l32 44 -39
-31 c-57 -45 -76 -68 -83 -104 -8 -37 -27 -49 -35 -21 -6 17 -11 16 -72 -15
-37 -18 -81 -33 -99 -33 -29 0 -34 -4 -40 -30 -6 -28 -8 -29 -29 -15 -29 19
-36 11 -36 -41 0 -24 -4 -46 -10 -49 -20 -13 -9 -23 23 -20 17 2 44 3 60 4 16
1 27 7 27 15 0 8 16 16 42 20 23 4 48 12 55 18 7 6 13 7 13 3 0 -4 -11 -16
-25 -27 -17 -13 -24 -26 -20 -38 4 -14 -4 -20 -40 -30 -24 -7 -49 -18 -55 -25
-6 -7 -20 -10 -32 -7 -18 4 -20 2 -14 -21 6 -26 5 -26 -19 -15 -22 10 -29 9
-48 -10 l-21 -22 22 0 c29 0 39 -26 18 -49 -9 -10 -16 -35 -16 -55 0 -30 4
-39 21 -43 17 -5 20 -11 15 -32 -18 -72 -18 -157 -1 -201 10 -25 20 -65 22
-90 4 -29 12 -50 25 -59 24 -16 19 -55 -17 -133 -32 -68 -32 -111 -3 -130 23
-15 23 -16 5 -64 -20 -56 -22 -85 -6 -101 8 -8 7 -19 -3 -39 -8 -16 -13 -36
-11 -46 6 -23 -23 -88 -40 -88 -7 0 -32 -14 -54 -30 -42 -31 -69 -28 -32 4 26
22 11 44 -34 48 -24 2 -32 8 -32 23 0 13 8 21 22 23 46 7 50 105 7 154 -16 17
-16 19 0 31 16 12 16 14 2 26 -13 11 -16 11 -16 -2 0 -9 -9 -21 -21 -27 -43
-24 -31 3 31 65 63 64 64 65 35 65 l-29 0 33 34 c21 22 31 41 28 50 -10 24
-22 20 -77 -29 -59 -52 -119 -85 -155 -85 l-26 0 20 26 c17 21 19 30 9 41 -9
11 -9 16 1 23 11 6 9 11 -8 19 -11 7 -21 18 -21 26 0 17 -16 20 -25 5 -8 -13
-55 -13 -55 0 0 5 17 19 38 30 l37 21 -42 -5 c-24 -2 -43 0 -43 5 0 5 5 9 10
9 22 0 8 18 -17 23 -16 4 -66 29 -113 57 -47 27 -110 60 -140 71 -30 11 -59
24 -65 28 -5 5 -34 14 -64 21 -192 45 -417 -86 -519 -302 -27 -58 -47 -88 -58
-88 -15 0 -15 -2 0 -25 9 -13 16 -34 16 -47 0 -21 0 -21 -15 -2 -17 23 -20 2
-3 -25 8 -14 8 -33 -5 -82 -8 -35 -21 -101 -28 -147 -7 -53 -15 -80 -21 -74
-5 5 -12 61 -15 123 -7 136 6 199 67 320 23 45 50 109 60 143 19 62 72 155 78
137 2 -5 -4 -24 -13 -41 -9 -18 -15 -33 -13 -35 5 -5 68 54 68 64 0 5 7 14 15
21 23 19 18 40 -10 40 -33 0 -32 10 10 50 19 18 33 35 31 37 -2 3 -36 -18 -75
-46 -39 -28 -73 -51 -76 -51 -9 0 15 42 42 74 14 16 34 49 45 73 11 23 25 43
31 43 7 0 7 -4 -1 -12 -7 -7 -12 -17 -12 -22 1 -6 10 0 20 13 12 14 20 38 20
62 0 24 15 73 40 128 22 49 40 93 40 98 0 5 25 40 55 78 52 64 63 85 49 85 -4
0 -35 -27 -71 -60 -138 -129 -97 -26 58 145 30 33 63 71 74 84 l20 24 -20 -11
c-11 -6 -40 -31 -65 -57 -60 -62 -160 -149 -165 -143 -2 2 14 31 35 63 22 33
40 63 40 67 0 19 -50 -18 -59 -43 -5 -16 -24 -49 -40 -73 -17 -25 -31 -53 -31
-63 0 -10 -9 -24 -20 -31 -11 -7 -20 -19 -20 -28 0 -22 -33 -67 -117 -157 -40
-43 -73 -82 -73 -87 0 -19 -81 -51 -118 -48 -41 3 -40 -1 -28 98 4 30 3 61 -2
69 -18 25 -32 0 -32 -54 l0 -53 -29 11 c-19 7 -27 16 -23 25 3 10 1 13 -6 8
-7 -4 -12 -24 -12 -44 l-1 -37 -16 30 c-21 40 -23 42 -33 25 -13 -20 -30 29
-30 83 l1 42 16 -29 c12 -23 17 -26 24 -15 10 18 29 168 29 224 -1 36 -2 38
-14 22 -8 -10 -22 -47 -32 -83 -9 -35 -20 -64 -24 -64 -12 0 -40 101 -40 145
0 82 24 103 34 30 4 -24 11 -47 16 -50 17 -11 23 46 16 156 -4 61 -4 131 1
157 l7 47 7 -50 c4 -27 8 -87 8 -133 1 -83 13 -102 25 -39 3 19 13 42 21 53
22 29 37 1 32 -63 -2 -29 0 -50 5 -47 4 3 8 13 8 22 1 9 7 28 15 42 l14 25 1
-32 c0 -18 -8 -67 -17 -109 -11 -53 -13 -78 -6 -82 8 -5 8 -22 3 -52 -5 -25
-7 -46 -6 -47 1 -1 21 26 45 60 23 34 53 77 66 96 26 36 42 80 52 149 5 34 3
42 -10 42 -18 0 -27 -21 -27 -63 0 -18 -13 -59 -29 -92 -51 -107 -81 -126 -42
-28 23 60 51 192 51 244 0 21 4 39 9 39 10 0 34 61 26 68 -2 3 -11 -10 -19
-29 -18 -40 -20 -21 -5 34 6 22 15 37 22 34 13 -4 14 -62 2 -139 -14 -86 15
-60 94 85 24 43 54 90 67 105 l23 27 -6 -39 c-7 -47 7 -43 31 8 19 40 21 113
4 118 -10 4 -10 13 -1 43 14 44 6 67 -13 40 -13 -18 -15 -18 -37 3 -39 37 -57
29 -57 -24 0 -40 2 -45 15 -34 17 14 35 5 35 -16 0 -37 -91 -214 -110 -214
-16 0 -23 42 -9 51 17 10 20 210 4 216 -5 1 -9 24 -7 51 3 40 0 51 -22 71 -14
14 -26 31 -26 38 0 8 -4 11 -10 8 -5 -3 -10 -32 -10 -63 0 -35 -8 -74 -20
-101 -23 -49 -25 -71 -8 -71 7 0 6 -6 -4 -17 -23 -27 -28 -49 -38 -150 -15
-161 -38 -147 -39 25 -1 61 -5 102 -11 102 -12 0 -12 -1 -15 -123 -3 -150 -21
-142 -28 14 -7 140 -26 207 -58 201 -19 -3 -149 131 -149 154 0 10 6 14 15 10
22 -8 19 6 -10 45 -76 105 -55 111 47 13 59 -56 84 -74 86 -62 2 10 10 14 21
11 14 -3 23 7 39 44 20 45 20 49 4 63 -9 9 -23 26 -30 39 -12 20 -11 26 9 47
13 14 34 24 50 24 15 0 50 12 76 26 45 24 54 26 138 20 133 -9 270 -34 359
-67 84 -31 113 -50 127 -87 5 -12 17 -25 26 -29 10 -4 23 -14 30 -22 7 -11 42
-20 105 -27 51 -6 76 -12 56 -13 -33 -1 -38 -4 -38 -26 0 -28 -12 -32 -30 -10
-21 25 -29 17 -17 -15 11 -30 10 -32 -66 -106 -46 -44 -77 -83 -77 -95 0 -11
-11 -31 -25 -45 -14 -14 -25 -30 -25 -36 0 -16 -31 -48 -46 -48 -7 0 -15 -13
-19 -29 -11 -52 -127 -177 -199 -216 -10 -5 -27 -31 -37 -57 -16 -41 -16 -48
-4 -48 32 0 11 -43 -94 -194 -103 -147 -142 -219 -127 -233 9 -9 66 48 66 66
0 20 42 93 144 250 47 72 95 149 106 172 16 31 25 39 40 34 11 -3 20 -1 22 7
4 18 155 157 185 171 13 6 43 29 67 51 58 56 154 109 184 101 13 -3 45 -26 71
-50 27 -25 55 -45 63 -45 18 0 136 121 170 176 36 57 116 126 233 202 120 78
110 71 103 78 -4 3 -20 -2 -37 -11 -48 -24 -37 -4 17 32 63 42 87 53 112 53
12 0 50 16 85 35 41 23 66 32 70 25 9 -14 -11 -37 -38 -46 -12 -4 -48 -31 -80
-61 -38 -37 -63 -53 -73 -49 -28 11 -326 -201 -341 -242 -4 -9 -26 -39 -50
-66 -64 -71 -58 -78 43 -51 31 8 71 25 88 39 57 44 290 260 424 394 73 72 143
134 157 138 13 3 26 12 29 20 3 7 36 29 74 48 37 19 87 50 111 70 66 56 73 42
9 -19 -32 -29 -85 -68 -119 -86 -43 -23 -66 -43 -77 -66 -9 -19 -37 -47 -64
-64 -26 -17 -48 -35 -48 -40 0 -11 43 10 126 62 67 43 74 45 74 27 0 -7 -23
-29 -51 -48 -28 -19 -59 -45 -69 -57 -10 -13 -22 -23 -27 -23 -13 0 -163 -139
-163 -151 0 -5 33 7 73 27 49 25 93 58 139 104 43 44 92 81 139 106 82 43 173
124 250 221 28 35 53 62 55 60 2 -2 -2 -23 -11 -46z m-3381 3 c10 -25 -1 -29
-14 -5 -6 12 -7 21 -1 21 5 0 12 -7 15 -16z m126 -37 c0 -55 -16 -82 -25 -44
-4 15 -3 33 3 40 6 7 8 24 5 37 -4 16 -3 21 5 16 7 -4 12 -26 12 -49z m3082
-18 c-18 -16 -40 -29 -49 -29 -19 0 -18 2 33 40 49 36 60 28 16 -11z m33 -30
c-55 -56 -163 -115 -180 -98 -14 15 50 67 96 79 20 6 54 23 75 39 60 45 64 36
9 -20z m-775 17 c0 -8 -17 -27 -37 -43 -50 -39 -68 -49 -59 -35 4 7 3 12 -2
12 -6 0 -15 -13 -21 -30 -5 -16 -17 -30 -26 -30 -8 0 -20 -11 -25 -25 -5 -14
-22 -30 -37 -36 -16 -6 -38 -20 -50 -31 -38 -36 -38 -11 -1 49 37 59 57 76 54
47 0 -9 5 -19 12 -21 7 -3 12 4 12 17 0 36 19 60 82 101 63 40 98 49 98 25z
m-2296 -35 c-6 -6 -24 19 -24 34 1 6 7 1 15 -9 8 -11 12 -22 9 -25z m-301 -71
c-7 -7 -83 79 -83 94 0 6 20 -12 44 -39 24 -28 42 -52 39 -55z m282 -105 c26
-54 115 -155 164 -188 31 -21 20 -34 -15 -19 -14 7 -36 9 -48 6 -18 -4 -28 1
-42 21 -11 15 -40 52 -65 84 -43 53 -79 111 -79 127 0 3 7 3 15 0 9 -3 18 1
21 9 10 26 21 17 49 -40z m3164 38 c-18 -21 -89 -73 -101 -73 -19 0 -6 30 25
57 37 32 100 46 76 16z m-129 -89 c-8 -8 -23 -20 -34 -26 -19 -10 -18 -8 3 16
26 27 53 37 31 10z m-2900 -49 c19 -19 32 -35 29 -35 -3 0 -20 16 -39 35 -19
19 -32 35 -29 35 3 0 20 -16 39 -35z m-844 -41 c9 -34 -8 -50 -30 -29 -23 23
-21 55 4 55 13 0 22 -9 26 -26z m2989 -106 c-67 -75 -165 -162 -173 -154 -7 8
194 206 210 206 5 0 -11 -24 -37 -52z m-3070 -127 c21 -42 24 -94 4 -99 -20
-4 -39 38 -39 88 0 47 14 51 35 11z m192 -37 c-4 -4 -14 1 -22 12 -22 29 -18
41 7 17 12 -13 19 -26 15 -29z m1530 -141 c-3 -10 -5 -2 -5 17 0 19 2 27 5 18
2 -10 2 -26 0 -35z m2053 -173 c0 -14 -143 -126 -193 -151 -38 -20 -42 -20
-74 -5 -19 9 -47 16 -64 16 -20 0 -29 4 -27 13 5 15 106 66 133 67 17 0 16 -4
-10 -26 -29 -24 -29 -25 -5 -19 34 9 180 79 205 99 23 18 35 20 35 6z m-2686
-229 c-6 -6 -24 19 -24 34 1 6 7 1 15 -9 8 -11 12 -22 9 -25z m246 -35 c-1
-21 -1 -21 -15 -2 -8 11 -15 29 -15 40 1 21 1 21 15 2 8 -11 15 -29 15 -40z
m-40 -68 c0 -17 -3 -18 -15 -8 -8 7 -15 21 -15 32 0 17 3 18 15 8 8 -7 15 -21
15 -32z m-155 -9 c10 -43 1 -46 -12 -4 -6 19 -7 35 -3 35 5 0 11 -14 15 -31z
m175 -88 c0 -21 -16 -2 -24 29 -7 24 -6 24 8 6 9 -11 16 -27 16 -35z m372 -33
c-9 -9 -12 -7 -12 12 0 19 3 21 12 12 9 -9 9 -15 0 -24z m-992 -18 c14 -9 17
-61 10 -240 -1 -21 11 -57 29 -94 17 -32 31 -63 31 -67 0 -14 -26 -10 -40 5
-6 8 -17 13 -23 11 -7 -2 -27 25 -44 61 -18 35 -28 64 -23 64 5 0 -4 21 -20
47 -33 51 -64 147 -56 170 6 15 81 53 106 53 8 0 22 -5 30 -10z m616 -36 c-4
-9 -9 -15 -11 -12 -3 3 -3 13 1 22 4 9 9 15 11 12 3 -3 3 -13 -1 -22z m-422
-130 c5 -20 1 -33 -15 -50 -12 -13 -27 -24 -32 -24 -8 0 -4 35 9 83 8 26 31
21 38 -9z m576 -123 c-1 -10 -6 -7 -15 9 -19 33 -18 50 0 26 8 -11 15 -27 15
-35z m-412 -34 c4 -45 -21 -95 -55 -108 -15 -5 -32 -17 -39 -27 -10 -14 -14
-15 -29 -2 -10 8 -29 13 -43 11 -22 -2 -18 5 34 57 32 33 69 72 82 87 29 34
46 28 50 -18z m-523 -19 c32 -15 32 -36 -1 -49 -31 -11 -57 -5 -76 18 -12 15
-10 16 20 10 30 -6 33 -5 27 13 -7 23 -5 24 30 8z m932 -20 c-3 -7 -5 -2 -5
12 0 14 2 19 5 13 2 -7 2 -19 0 -25z m316 1 c-10 -16 -29 -40 -42 -52 l-24
-22 13 25 c12 24 59 80 67 80 2 0 -4 -14 -14 -31z m-1188 -59 c16 -11 30 -28
30 -37 0 -12 19 -28 55 -45 30 -15 60 -30 65 -33 6 -3 5 -7 -2 -11 -24 -11
-13 -23 24 -26 20 -2 39 -9 41 -17 4 -11 -5 -12 -43 -7 -85 13 -135 43 -135
82 0 27 -44 64 -76 64 -31 0 -41 20 -19 37 24 17 24 17 60 -7z m885 5 c0 -8
-4 -15 -10 -15 -5 0 -10 7 -10 15 0 8 5 15 10 15 6 0 10 -7 10 -15z m806 -17
c-6 -30 -5 -31 13 -14 17 16 19 15 30 -12 15 -35 11 -104 -6 -109 -18 -6 -44
53 -50 113 -4 40 -2 54 7 54 9 0 11 -9 6 -32z m284 1 c69 -41 120 -90 120
-113 0 -51 -127 -196 -171 -196 -11 0 -19 -7 -19 -15 0 -9 -6 -12 -15 -9 -8 4
-22 1 -30 -6 -29 -24 -27 0 9 102 29 82 54 197 56 251 0 12 13 8 50 -14z
m-884 -37 c-8 -16 -23 -35 -32 -43 -16 -12 -17 -12 -9 1 16 28 46 70 51 70 2
0 -2 -13 -10 -28z m-1627 -136 c22 -29 46 -60 55 -68 8 -9 13 -18 10 -21 -3
-3 0 -16 7 -28 9 -17 9 -24 0 -27 -6 -2 -11 -13 -11 -24 0 -17 -3 -18 -15 -8
-18 15 -20 41 -4 57 8 8 -5 23 -45 54 -57 44 -92 98 -82 125 9 23 40 1 85 -60z
m1123 -11 c-2 -22 -13 -65 -26 -95 -19 -48 -25 -55 -47 -52 -15 1 -32 -4 -39
-13 -24 -29 -32 -15 -10 19 11 19 17 37 12 40 -17 10 -50 -6 -61 -30 -6 -13
-22 -29 -36 -34 -15 -6 -25 -17 -25 -30 0 -11 -5 -20 -10 -20 -21 0 -20 27 0
75 11 26 18 50 15 53 -3 3 -19 -4 -35 -16 -33 -25 -40 -27 -40 -10 0 7 -12 24
-27 40 -23 24 -24 28 -10 34 22 8 22 21 0 27 -36 8 41 29 122 33 44 2 105 8
135 13 82 13 85 11 82 -34z m905 -11 c-5 -30 -3 -34 11 -30 12 3 25 -8 44 -37
14 -23 24 -45 22 -49 -13 -20 -124 63 -124 92 0 9 40 60 47 60 3 0 3 -16 0
-36z m-729 -81 c-2 -5 10 -21 26 -36 25 -25 28 -34 23 -73 -5 -51 -12 -63 -29
-46 -8 8 -18 6 -40 -9 l-28 -20 0 21 c0 11 7 34 15 49 13 26 13 30 0 41 -8 7
-15 9 -15 4 0 -15 -41 -77 -46 -71 -7 7 9 39 49 99 28 42 52 63 45 41z m312
-29 c0 -3 -5 -15 -11 -26 -6 -12 -19 -49 -29 -82 l-17 -61 -7 38 c-5 28 -12
37 -26 37 -31 0 -23 20 10 27 18 3 30 12 30 21 0 17 28 52 42 52 4 0 8 -3 8
-6z m318 -37 c2 -19 9 -27 23 -27 14 0 19 -7 19 -25 0 -28 3 -30 28 -14 26 16
72 -4 65 -29 -3 -14 5 -25 30 -41 40 -24 55 -27 37 -6 -19 23 -2 35 49 35 49
0 79 -18 66 -40 -3 -5 1 -13 9 -16 22 -9 10 -23 -14 -17 -11 3 -20 14 -20 25
0 15 -6 19 -27 16 -22 -2 -29 -9 -31 -30 -2 -16 -6 -28 -9 -28 -3 0 -34 20
-69 45 l-63 45 -3 -32 c-3 -37 -20 -41 -29 -6 -3 14 -12 22 -22 22 -9 -1 -17
2 -17 6 0 21 -34 41 -58 35 -24 -6 -25 -5 -18 36 12 77 47 106 54 46z m-521
-44 c-3 -10 -5 -4 -5 12 0 17 2 24 5 18 2 -7 2 -21 0 -30z m-341 5 c4 -6 2
-14 -5 -16 -7 -2 -21 -18 -32 -36 l-19 -31 0 26 c0 15 7 32 15 39 8 7 12 16 9
21 -3 5 2 9 10 9 8 0 18 -5 22 -12z m2812 -353 c90 -105 93 -110 68 -113 -37
-5 -35 -22 28 -267 30 -115 59 -237 66 -270 6 -33 17 -64 24 -70 6 -5 18 -25
25 -42 7 -18 17 -33 21 -33 13 0 60 -101 60 -127 0 -13 5 -23 10 -23 19 0 182
-164 203 -205 20 -39 21 -39 28 -15 14 49 8 62 -52 125 -37 39 -55 65 -47 67
10 4 8 14 -6 49 -59 143 -78 196 -91 259 -17 78 -20 186 -6 194 10 6 160 -43
211 -69 19 -10 66 -42 104 -71 37 -30 73 -54 80 -54 6 -1 20 -15 31 -33 11
-18 35 -40 54 -49 43 -22 85 -62 121 -117 31 -45 31 -74 1 -47 -10 9 -23 16
-30 16 -6 0 -43 16 -81 35 l-70 35 0 -30 c0 -16 -4 -30 -10 -30 -28 0 -2 -35
63 -87 103 -82 327 -294 413 -392 68 -77 74 -87 74 -128 0 -41 30 -126 76
-219 9 -17 41 -56 71 -85 l56 -54 -7 33 c-8 44 -55 141 -105 220 -23 34 -41
65 -41 69 0 3 18 -11 40 -31 47 -42 73 -47 66 -13 -3 12 -7 38 -11 57 -9 56
-48 143 -75 167 -21 19 -23 24 -10 32 13 9 10 20 -18 76 -17 36 -32 72 -32 80
0 40 47 6 174 -127 74 -78 137 -140 140 -137 9 9 -65 126 -116 183 -45 51 -53
72 -50 124 2 20 6 22 45 16 42 -6 107 -21 131 -30 8 -3 12 3 12 18 -1 16 5 24
21 26 31 5 414 -162 533 -232 47 -28 233 -106 253 -106 10 0 47 -16 81 -35 35
-19 71 -35 82 -35 10 0 46 -21 79 -46 33 -25 110 -83 170 -128 131 -98 166
-132 202 -194 15 -26 62 -100 104 -164 72 -109 206 -364 309 -588 25 -52 57
-114 72 -137 16 -23 39 -80 53 -125 13 -46 53 -166 89 -266 86 -240 138 -415
176 -584 17 -75 42 -169 55 -209 18 -51 22 -75 14 -80 -17 -10 28 -161 127
-430 130 -354 186 -490 219 -529 7 -8 15 -49 18 -90 4 -41 16 -115 27 -165 24
-104 40 -454 43 -960 2 -306 -4 -381 -48 -645 -64 -375 -67 -400 -63 -580 3
-159 5 -179 26 -215 12 -22 22 -43 22 -48 0 -4 14 -35 30 -69 17 -33 30 -64
30 -68 0 -5 -16 -14 -35 -20 -48 -16 -58 -38 -43 -94 10 -39 10 -53 -6 -98
-19 -55 -60 -108 -83 -108 -16 0 -16 0 2 135 19 138 19 188 3 183 -8 -3 -17
-37 -23 -82 -9 -66 -14 -81 -38 -102 -37 -32 -51 -31 -44 3 3 16 8 45 12 65 5
25 3 43 -5 53 -17 21 -28 11 -41 -38 -14 -53 -29 -73 -40 -55 -12 19 -55 -26
-85 -91 -40 -86 -74 -116 -74 -67 0 13 17 43 40 69 22 25 40 52 40 61 0 9 7
19 15 22 16 7 21 34 5 34 -7 0 -8 136 -1 182 2 11 151 108 167 108 17 0 11
-16 -43 -108 -24 -40 -43 -76 -43 -80 0 -25 126 161 135 201 7 26 5 27 -29 27
-43 0 -44 8 -10 60 14 21 23 44 19 49 -10 17 -23 13 -30 -11 -9 -27 -171 -195
-196 -203 -13 -5 -19 -18 -21 -53 -3 -40 -6 -47 -25 -50 -15 -2 -33 -20 -49
-48 -15 -26 -32 -43 -39 -40 -7 2 -22 -2 -34 -10 -26 -19 -44 -9 -37 21 3 12
3 24 0 27 -3 3 -44 -12 -92 -33 -48 -21 -95 -39 -104 -39 -10 0 -18 -4 -18
-10 0 -13 -57 -13 -65 0 -3 5 7 12 22 16 50 10 53 13 53 40 0 27 -11 28 -64 8
-11 -4 -16 -1 -16 10 0 22 -5 21 -85 -19 -70 -35 -150 -58 -130 -37 6 5 19 12
30 14 12 2 24 15 29 35 8 27 25 41 105 84 105 59 109 76 5 29 -37 -16 -69 -28
-72 -25 -3 3 -15 -1 -28 -9 -42 -28 -48 22 -8 59 36 34 27 32 -64 -14 -154
-76 -222 -83 -126 -12 32 24 61 46 63 48 2 1 2 5 -1 8 -3 3 -16 -4 -30 -15
-14 -10 -28 -17 -32 -13 -3 3 -14 -1 -24 -10 -29 -27 -76 -30 -156 -13 -77 18
-217 81 -296 135 -54 37 -70 39 -70 6 0 -17 12 -32 43 -53 53 -37 173 -98 210
-107 15 -4 27 -14 27 -22 0 -9 -6 -13 -15 -9 -8 3 -28 1 -44 -5 -39 -14 -104
4 -129 36 -11 14 -27 25 -36 25 -9 0 -16 7 -16 15 0 18 -73 54 -108 55 -13 0
-33 5 -45 12 -18 9 -114 90 -151 127 -80 80 -138 145 -163 181 -17 25 -47 61
-67 79 -20 19 -36 41 -36 49 0 7 -13 24 -29 37 -15 14 -44 55 -64 92 -28 53
-73 106 -204 238 -186 188 -242 237 -296 260 -36 15 -67 45 -34 32 10 -3 17
-2 17 2 0 12 -27 22 -43 16 -6 -3 -17 5 -22 17 -6 12 -22 29 -36 37 -37 23
-269 212 -269 220 0 4 -13 12 -30 18 -20 8 -30 18 -30 32 0 16 -6 21 -27 21
-31 0 -107 32 -117 49 -4 6 -23 11 -43 11 -27 0 -46 9 -78 37 -43 39 -178 117
-205 119 -8 0 -26 6 -40 12 -14 6 -57 20 -96 31 -97 28 -104 39 -55 84 54 49
98 70 49 23 -39 -36 -45 -50 -28 -61 18 -11 75 28 144 99 89 91 113 108 137
93 14 -9 26 -8 51 5 45 21 210 160 274 231 49 54 156 217 148 226 -9 9 -53
-23 -65 -48 -18 -35 -76 -101 -83 -93 -12 11 -6 29 26 78 18 27 33 60 35 74 1
14 5 43 9 66 5 37 3 42 -17 47 -21 6 -22 10 -16 67 10 90 74 220 109 220 17 0
20 -5 16 -30 -3 -16 -1 -30 3 -30 4 0 44 34 89 75 84 78 192 148 250 165 49
14 47 6 -4 -30 -25 -17 -46 -35 -46 -40 0 -9 25 -2 145 40 33 11 79 25 103 31
52 12 48 25 -10 31 -48 6 -108 50 -108 81 0 11 14 24 38 34 31 13 63 14 201 9
151 -7 163 -6 157 9 -5 14 -2 16 16 11 73 -19 129 -28 135 -23 3 4 -2 17 -13
28 -19 22 -19 22 9 17 40 -8 28 13 -17 28 -59 21 -235 44 -331 44 -75 0 -86
-2 -75 -15 30 -36 -13 -51 -182 -66 -151 -12 -258 -42 -332 -91 -58 -38 -103
-97 -112 -147 -4 -20 -25 -72 -47 -116 -62 -124 -69 -152 -71 -255 -1 -79 -5
-103 -26 -145 -18 -35 -33 -51 -52 -56 -15 -4 -39 -21 -53 -37 -14 -17 -47
-45 -73 -62 -44 -29 -51 -31 -105 -25 -37 5 -62 3 -71 -4 -17 -14 -153 -61
-178 -61 -10 0 -35 -16 -56 -35 l-37 -35 55 6 c52 6 58 4 88 -24 38 -36 39
-45 10 -65 -13 -8 -49 -38 -81 -66 -47 -41 -65 -51 -94 -51 l-35 0 27 36 c27
35 27 37 11 70 -20 43 -20 44 0 44 13 0 11 7 -10 35 l-27 35 23 50 c18 38 28
50 45 50 13 0 23 6 23 14 0 8 11 16 23 20 42 10 75 45 92 96 9 27 28 66 42 87
14 20 27 48 29 61 3 13 15 45 28 71 24 47 32 70 60 173 13 46 23 61 47 73 16
9 36 30 43 48 41 95 66 164 66 180 0 9 7 17 15 17 11 0 15 -11 15 -40 0 -25 5
-40 13 -40 6 0 34 33 60 73 119 177 132 192 163 192 26 0 30 4 39 47 7 31 19
53 37 67 17 14 38 51 58 102 34 90 36 122 2 66 -12 -21 -29 -37 -40 -37 -10 0
-35 -20 -55 -45 -21 -25 -46 -45 -55 -45 -9 0 -57 -27 -107 -60 -49 -33 -95
-60 -101 -60 -7 0 -11 14 -10 32 1 23 -4 33 -17 36 -9 2 -19 -2 -21 -10 -2 -7
-25 -80 -50 -161 -25 -81 -46 -156 -46 -165 -1 -9 -7 -28 -15 -42 l-14 -25 -1
31 c0 16 -7 39 -15 50 -33 44 -11 207 45 331 27 59 29 68 15 82 -8 10 -12 26
-8 39 8 32 -12 27 -53 -13 -19 -19 -43 -35 -54 -35 -40 0 -72 -89 -95 -269
-15 -112 -25 -141 -50 -141 -12 0 -18 -16 -55 -158 -12 -45 -26 -82 -30 -82
-14 0 -22 321 -9 400 6 41 13 172 14 290 3 190 0 233 -22 365 -23 144 -34 178
-50 161 -4 -4 -11 -89 -14 -189 -8 -201 -14 -250 -37 -286 -10 -16 -14 -46
-13 -88 2 -89 -13 -141 -47 -154 -37 -14 -42 -26 -36 -89 5 -59 -8 -97 -25
-71 -5 8 -7 28 -5 45 21 152 54 411 54 428 0 21 0 21 -16 2 -14 -18 -15 -13
-10 56 3 41 9 104 12 139 5 48 4 62 -4 57 -7 -4 -12 -19 -12 -34 0 -72 -161
-767 -190 -822 -12 -22 -39 -44 -46 -37 -10 10 27 206 52 280 36 104 64 267
41 236 -44 -59 -71 -120 -87 -199 -10 -50 -24 -98 -30 -105 -6 -8 -9 -23 -6
-33 4 -11 0 -24 -9 -32 -11 -9 -14 -22 -10 -41 4 -15 1 -30 -4 -34 -22 -13
-23 29 -3 133 24 120 42 250 42 290 -1 26 -1 26 -15 -6 -8 -18 -24 -45 -35
-59 -11 -14 -20 -33 -20 -42 0 -9 -5 -33 -11 -53 l-10 -38 -27 17 c-15 9 -28
18 -30 19 -2 1 1 19 7 40 12 48 36 542 27 551 -16 16 -26 -27 -26 -107 0 -110
-17 -241 -37 -291 -17 -43 -50 -70 -58 -47 -2 7 -9 125 -15 263 -5 137 -15
254 -20 259 -6 6 -10 6 -10 1 0 -27 -40 -302 -45 -317 -10 -26 -32 -22 -49 10
l-15 27 -2 -30 c0 -16 0 -83 1 -147 2 -115 1 -118 -20 -118 -20 0 -21 -4 -18
-56 2 -45 -1 -59 -14 -67 -31 -20 -44 5 -28 52 14 44 9 156 -11 236 -13 51
-24 62 -44 45 -12 -10 -18 -6 -32 19 -21 35 -33 40 -33 12 0 -26 -17 -36 -35
-21 -10 8 -15 31 -15 66 0 29 -4 56 -10 59 -6 4 -10 -14 -10 -47 0 -70 -9 -98
-29 -98 -39 0 -81 158 -81 302 0 44 9 123 19 176 21 107 32 186 25 179 -3 -3
-16 -54 -29 -113 -14 -60 -34 -135 -46 -167 -19 -53 -19 -66 -10 -145 6 -48
11 -112 11 -142 l0 -54 -22 21 c-12 12 -29 53 -39 90 l-18 68 0 -73 c-1 -66
-3 -73 -23 -81 -13 -5 -26 -7 -31 -4 -12 7 -38 74 -46 118 -10 58 -24 40 -23
-30 l1 -60 -34 70 c-18 39 -34 77 -34 86 -1 9 -10 27 -20 41 -26 33 -61 134
-61 177 0 19 9 53 19 75 31 65 91 415 91 531 0 35 -4 45 -20 50 -11 3 -20 15
-20 25 0 17 54 162 121 325 29 70 33 85 21 85 -14 0 -35 -36 -67 -115 -15 -38
-33 -81 -40 -95 -7 -14 -27 -74 -45 -135 -17 -60 -33 -117 -36 -126 -3 -13 1
-15 20 -12 21 4 26 0 32 -21 9 -37 -4 -107 -23 -128 -10 -11 -19 -50 -25 -105
-29 -292 -29 -292 -49 -263 -5 8 -8 43 -6 78 1 34 0 62 -3 62 -4 0 -15 -16
-26 -35 -10 -19 -21 -35 -25 -35 -4 0 -13 14 -22 31 -24 50 -27 21 -9 -93 14
-100 14 -109 -1 -126 -10 -11 -17 -35 -17 -60 0 -47 -6 -51 -43 -22 -14 11
-30 20 -35 20 -18 0 -79 77 -92 116 -9 27 -11 75 -7 166 4 82 3 127 -3 123 -6
-3 -10 -10 -10 -15 0 -5 -5 -21 -11 -37 -29 -76 -38 108 -16 305 7 56 11 102
10 102 -9 0 -43 -84 -43 -105 0 -36 -24 -27 -28 11 -2 16 -11 37 -19 47 -14
15 -15 41 -10 190 4 99 15 222 27 290 11 66 20 121 20 123 0 2 -7 1 -15 -2
-10 -4 -15 0 -15 10 0 28 47 208 68 261 38 98 37 92 19 75 -26 -24 -146 -247
-184 -340 -15 -38 -18 -74 -18 -235 1 -204 15 -328 47 -409 18 -47 28 -159 15
-172 -12 -12 -44 17 -60 53 -16 37 -97 560 -97 629 0 18 -5 34 -10 34 -7 0 -9
-20 -5 -57 3 -32 10 -128 16 -213 5 -85 14 -175 19 -200 15 -73 12 -130 -5
-130 -8 0 -15 -9 -15 -20 0 -34 -18 -22 -34 23 -50 133 -84 399 -87 687 -1 63
-4 102 -8 86 -14 -68 -37 -35 -82 119 -27 93 -30 200 -10 338 12 82 12 89 -5
101 -12 9 -19 31 -22 72 -3 52 0 64 25 102 38 55 145 166 183 189 17 9 30 21
30 26 0 15 -62 -4 -122 -36 l-57 -31 -20 25 c-48 58 -51 109 -6 109 27 0 30 4
40 64 4 23 18 51 35 68 57 56 71 21 15 -38 -19 -20 -35 -44 -35 -54 0 -9 -5
-31 -11 -49 -6 -18 -8 -35 -4 -39 9 -9 100 90 122 131 9 18 40 59 69 92 57 63
63 75 39 75 -7 0 -18 7 -22 15 -8 13 -14 10 -38 -15 -16 -16 -36 -30 -46 -30
-9 0 -22 -7 -29 -15 -7 -8 -20 -15 -29 -15 -10 0 -26 -7 -37 -15 -50 -38 -45
-7 16 90 73 118 66 157 -11 65 -46 -54 -68 -60 -29 -8 13 17 23 38 23 45 0 7
4 13 9 13 5 0 12 10 17 23 7 18 22 26 63 35 100 22 189 33 203 25 30 -18 164
-140 176 -162 13 -22 11 -26 -19 -51 -18 -15 -59 -42 -92 -61 -116 -66 -155
-92 -144 -96 6 -2 44 12 85 32 40 19 88 38 106 41 18 3 33 11 33 18 1 13 98
81 106 73 10 -10 -7 -48 -38 -83 -43 -48 -27 -54 26 -10 24 20 47 36 50 36 4
0 69 -61 146 -135 142 -137 186 -173 197 -161 12 12 -17 53 -132 181 -64 72
-124 140 -132 152 -22 33 -8 46 48 41 40 -4 60 -14 121 -64 127 -102 312 -269
341 -307 27 -35 57 -49 57 -26 0 12 -47 64 -257 282 -79 81 -143 154 -143 162
0 16 44 49 80 60 14 4 56 30 94 56 39 27 80 49 91 49 12 0 50 -18 84 -40 l61
-40 -35 -68 c-43 -84 -45 -105 -7 -69 15 15 37 27 49 27 11 0 26 7 33 15 28
34 69 12 260 -141 155 -124 269 -232 356 -335 66 -77 96 -101 73 -56 -28 54
-137 177 -326 366 -112 112 -206 214 -209 226 -8 33 87 309 108 313 55 10 628
-309 825 -459 44 -33 134 -52 147 -31 8 14 -294 288 -382 345 -162 106 -193
125 -304 183 -64 33 -132 73 -152 87 -34 27 -34 28 -29 84 8 78 26 126 50 138
12 6 29 17 39 25 11 10 18 11 21 4 2 -6 10 -20 18 -30 14 -19 14 -18 14 1 1
29 -17 149 -25 169 -4 10 -1 16 9 16 9 0 19 -9 22 -20 3 -11 10 -20 15 -20 12
0 3 381 -10 415 -5 14 -10 29 -10 33 1 11 213 -212 318 -333z m-2360 285 c2
-14 -4 -34 -11 -45 -13 -16 -17 -17 -31 -6 -19 16 -20 34 -5 62 14 27 43 20
47 -11z m1060 -12 c-3 -9 -36 -15 -94 -19 -98 -6 -124 -14 -124 -36 0 -10 -8
-13 -26 -11 -32 4 -50 28 -40 53 5 14 9 15 20 6 11 -9 26 -9 63 3 62 19 206
21 201 4z m67 2 c3 -5 -1 -10 -9 -10 -9 0 -16 5 -16 10 0 6 4 10 9 10 6 0 13
-4 16 -10z m-2427 -41 c29 -25 53 -38 64 -36 23 7 23 -5 -1 -27 -17 -16 -21
-16 -67 1 -47 18 -49 20 -52 61 -2 23 0 42 3 42 4 0 28 -18 53 -41z m1702 11
c0 -30 -13 -40 -25 -20 -8 13 4 50 16 50 5 0 9 -13 9 -30z m1000 10 c0 -11 -4
-20 -10 -20 -5 0 -10 9 -10 20 0 11 5 20 10 20 6 0 10 -9 10 -20z m564 -53 c6
-36 4 -57 -8 -87 -9 -22 -16 -49 -16 -60 0 -11 -9 -37 -21 -60 -13 -24 -26
-81 -35 -147 -18 -143 -42 -249 -58 -262 -17 -14 -66 5 -66 26 0 8 -13 13 -39
13 -42 0 -100 21 -144 52 -40 29 -34 67 14 90 48 22 105 88 120 138 10 32 25
51 65 81 62 45 110 114 124 173 24 107 49 124 64 43z m-514 -25 c0 -13 -103
-71 -138 -78 -35 -7 -38 -3 -22 27 7 13 21 19 45 19 18 0 37 5 40 11 13 20 75
38 75 21z m-27 -101 c-24 -21 -55 -41 -70 -44 -16 -3 -37 -9 -47 -13 -38 -15
-6 14 39 35 25 12 45 25 45 31 0 5 7 7 15 4 8 -4 17 1 21 10 3 9 14 16 23 16
11 -1 2 -14 -26 -39z m-2691 -28 c16 -15 14 -43 -3 -43 -8 0 -39 52 -39 65 0
7 19 -3 42 -22z m3058 18 c0 -14 -42 -41 -63 -41 -17 0 -18 2 -6 16 21 25 69
42 69 25z m-2449 -51 c40 -22 17 -29 -26 -8 -25 12 -45 25 -45 30 0 8 35 -3
71 -22z m2079 -20 c0 -10 -31 -23 -38 -15 -8 7 19 35 29 29 5 -3 9 -9 9 -14z
m-2131 -21 c24 -17 40 -33 37 -36 -3 -4 -14 1 -24 10 -10 10 -28 17 -40 17
-12 0 -22 2 -22 4 0 2 -3 11 -6 20 -9 24 8 19 55 -15z m1024 -152 c21 -32 70
-59 91 -51 24 9 33 -26 11 -42 -31 -23 -62 -17 -85 17 -12 16 -25 28 -28 25
-3 -4 -13 1 -23 10 -10 9 -26 14 -35 10 -15 -6 -15 -8 0 -31 12 -18 13 -25 4
-25 -7 0 -22 -12 -34 -27 -12 -15 -23 -22 -27 -16 -4 6 2 22 13 36 11 14 20
32 20 41 0 9 9 42 19 74 11 32 23 82 27 112 l8 55 11 -81 c6 -45 19 -93 28
-107z m967 163 c8 -5 12 -12 9 -15 -8 -8 -39 5 -39 16 0 11 11 11 30 -1z
m-1673 -20 c14 -11 32 -20 39 -20 7 0 18 -9 24 -21 7 -11 37 -32 68 -47 62
-28 133 -33 253 -18 69 9 119 3 119 -14 0 -14 -55 -40 -85 -40 -14 0 -33 -4
-43 -10 -9 -5 -43 -12 -76 -15 -52 -6 -63 -11 -96 -47 -34 -37 -40 -40 -66
-31 -16 5 -39 25 -52 44 -13 19 -55 61 -94 94 -94 79 -99 87 -68 120 28 30 44
31 77 5z m643 -25 c0 -8 -4 -15 -10 -15 -5 0 -10 7 -10 15 0 8 5 15 10 15 6 0
10 -7 10 -15z m-870 -30 c-7 -8 -16 -12 -21 -9 -13 8 -1 24 18 24 13 0 13 -3
3 -15z m1961 5 c59 -32 -34 -124 -106 -106 -33 8 -44 50 -19 77 28 31 92 46
125 29z m-1933 -56 c1 -10 -2 -26 -8 -34 -16 -24 -43 16 -29 42 12 23 33 19
37 -8z m2032 -43 c0 -5 -7 -14 -15 -21 -8 -7 -15 -18 -15 -25 0 -14 -57 -31
-67 -21 -11 11 7 36 39 56 35 21 58 26 58 11z m-925 -90 c10 -17 -10 -20 -35
-5 l-25 13 27 1 c15 0 29 -4 33 -9z m-175 -41 c12 -8 11 -10 -7 -10 -12 0 -25
-5 -28 -10 -8 -13 -25 -3 -25 16 0 16 37 19 60 4z m-166 -35 c-10 -8 -27 -15
-38 -15 -15 0 -16 3 -6 15 7 8 24 15 38 15 25 0 25 -1 6 -15z m-157 -62 c3 -8
-5 -9 -31 -1 -19 6 -33 15 -31 19 7 10 58 -5 62 -18z m348 -3 c3 -5 -3 -10
-15 -10 -12 0 -18 5 -15 10 3 6 10 10 15 10 5 0 12 -4 15 -10z m815 -91 c0
-14 -30 -38 -47 -39 -14 0 -18 32 -6 43 11 12 53 8 53 -4z m-1386 -66 c37 -17
64 -33 60 -36 -5 -2 -51 -11 -102 -18 -73 -10 -97 -10 -113 -1 -10 7 -27 12
-36 12 -20 0 -84 36 -95 54 -5 7 10 13 45 17 100 13 168 5 241 -28z m1892 12
c44 -29 35 -134 -20 -241 -31 -61 -35 -65 -36 -39 0 17 8 62 19 100 26 98 33
143 22 149 -11 7 -25 -27 -46 -112 -29 -115 -49 -136 -102 -109 -45 23 -66 52
-55 74 5 10 12 32 15 50 4 18 28 60 54 93 47 61 48 62 88 55 22 -3 50 -12 61
-20z m-226 -19 c0 -3 -7 -12 -16 -20 -19 -20 -40 -11 -23 10 10 13 39 20 39
10z m-2380 -16 c13 -8 12 -11 -5 -24 -23 -17 -39 -7 -29 17 7 19 13 21 34 7z
m234 -160 c6 -6 5 -14 -3 -23 -9 -11 -8 -17 4 -27 16 -13 21 -40 8 -40 -22 0
-72 42 -75 62 -2 18 -10 24 -36 26 -29 3 -33 6 -28 25 3 12 6 30 6 39 0 13 11
10 57 -18 32 -19 62 -39 67 -44z m1946 -6 c0 -21 -51 -69 -114 -108 -74 -47
-96 -55 -96 -35 0 7 -10 5 -25 -5 -14 -9 -25 -12 -25 -6 0 14 113 95 182 132
51 27 78 35 78 22z m-560 -34 c0 -6 11 -15 25 -20 25 -10 32 -24 16 -34 -15
-10 -38 4 -50 30 -14 31 -14 34 -1 34 6 0 10 -5 10 -10z m297 -57 c-9 -9 -20
-13 -24 -9 -4 4 -1 11 7 16 25 16 35 11 17 -7z m-1559 -53 c-14 -22 -24 -19
-15 5 4 8 11 15 17 15 6 0 6 -7 -2 -20z m748 -12 c-4 -18 -11 -34 -16 -36 -6
-2 -10 -14 -10 -27 0 -29 -17 -42 -33 -26 -9 9 -8 19 5 41 10 17 13 32 7 35
-15 10 -10 25 6 19 8 -4 17 1 21 10 11 30 27 17 20 -16z m-110 8 c8 -22 -14
-56 -36 -56 -31 0 -63 -38 -57 -67 3 -16 1 -23 -8 -19 -7 2 -18 -1 -25 -7 -8
-8 -14 -8 -16 -2 -12 30 -50 88 -59 89 -12 1 -63 -147 -64 -186 -1 -16 -5 -28
-11 -28 -5 0 -12 12 -15 28 -4 15 -10 35 -16 44 -5 10 -9 27 -9 39 0 11 -11
35 -25 53 -32 42 -32 64 0 72 14 3 23 10 20 14 -3 5 34 11 82 14 72 5 186 18
226 25 4 0 10 -5 13 -13z m765 4 c10 -6 26 -24 34 -40 15 -28 14 -30 -4 -30
-33 0 -52 12 -62 36 -5 13 -12 24 -16 23 -17 -3 -24 1 -18 11 8 13 41 13 66 0z
m683 -43 c-7 -20 -34 -23 -34 -4 0 19 22 39 32 29 5 -5 6 -16 2 -25z m-2064
-47 c0 -11 -4 -20 -10 -20 -5 0 -10 9 -10 20 0 11 5 20 10 20 6 0 10 -9 10
-20z m3991 1 c17 -14 21 -23 14 -30 -13 -13 -55 13 -55 35 0 19 13 18 41 -5z
m-3790 -18 c12 -15 12 -16 -3 -10 -16 6 -18 0 -18 -46 0 -60 -14 -92 -23 -55
-9 30 -9 92 -1 112 8 21 28 20 45 -1z m-511 -68 c0 -33 -5 -50 -20 -62 -12
-11 -20 -30 -20 -48 0 -18 -11 -63 -24 -101 -39 -113 -36 -109 -57 -67 -10 21
-19 47 -19 59 0 11 -7 35 -16 52 -28 58 12 133 106 196 40 26 50 21 50 -29z
m396 -23 c-8 -15 -17 -35 -20 -44 -3 -10 -10 -18 -16 -18 -17 0 -11 48 11 93
21 40 22 41 30 18 6 -15 4 -32 -5 -49z m363 -17 c13 -45 9 -68 -8 -49 -13 13
-25 94 -14 94 5 0 15 -20 22 -45z m3594 -52 c108 -54 127 -63 143 -63 10 0 14
-14 14 -52 l0 -53 -20 25 c-11 14 -23 37 -26 53 -5 20 -12 27 -30 27 -13 0
-24 5 -24 11 0 6 -6 9 -12 6 -7 -3 -21 -8 -30 -12 -12 -5 -21 2 -32 23 -8 16
-29 35 -45 42 -17 7 -28 16 -25 21 7 13 7 13 87 -28z m-4133 4 c0 -7 -7 -22
-15 -33 -14 -18 -14 -17 -15 14 0 22 5 32 15 32 8 0 15 -6 15 -13z m-60 -26
c0 -21 -49 -85 -58 -77 -5 6 16 64 31 84 14 18 27 15 27 -7z m543 -6 c-7 -21
-13 -19 -13 6 0 11 4 18 10 14 5 -3 7 -12 3 -20z m-520 -220 c-8 -82 -18 -186
-21 -229 -4 -49 -12 -81 -19 -83 -7 -3 -26 17 -43 43 -30 48 -39 84 -20 84 14
0 13 27 -2 32 -15 5 35 205 55 222 7 6 24 28 37 48 14 20 25 36 26 35 1 -1 -5
-69 -13 -152z m422 83 c9 -61 2 -141 -13 -146 -7 -2 -10 2 -7 11 3 7 -1 20
-10 27 -17 14 -19 59 -4 113 13 49 26 47 34 -5z m-282 -92 c6 -16 -2 -28 -14
-20 -12 7 -11 34 0 34 5 0 11 -6 14 -14z m405 -42 l-12 -29 -4 28 c-4 31 20
73 26 45 2 -8 -3 -28 -10 -44z m126 34 c-9 -31 -24 -48 -40 -48 -19 0 -17 13
7 44 25 32 43 34 33 4z m186 -28 c0 -11 -7 -20 -15 -20 -8 0 -26 -18 -40 -40
-14 -22 -30 -40 -35 -40 -6 0 -10 -6 -10 -13 0 -7 -13 -26 -30 -42 l-30 -29 0
28 c0 36 23 79 72 132 45 48 88 60 88 24z m-1083 -55 c8 -22 -6 -33 -17 -15
-13 20 -12 30 0 30 6 0 13 -7 17 -15z m288 -77 c-16 -131 -38 -207 -66 -224
-9 -5 -10 2 -5 27 4 19 14 75 22 124 20 116 22 125 41 125 12 0 14 -9 8 -52z
m335 -34 c0 -87 -19 -99 -34 -22 -10 53 -2 98 19 98 12 0 15 -16 15 -76z
m-174 -32 c-10 -102 -17 -133 -30 -129 -19 6 -37 76 -26 97 6 10 10 28 10 40
0 30 29 82 42 74 7 -5 8 -32 4 -82z m264 64 c0 -24 -16 -43 -27 -32 -8 8 6 56
17 56 6 0 10 -11 10 -24z m298 -333 c-4 -166 -8 -218 -22 -258 -10 -27 -21
-53 -25 -57 -8 -9 -62 135 -85 228 -18 68 -21 170 -7 179 15 8 21 -8 27 -74 7
-66 18 -74 51 -38 17 18 22 41 28 127 8 112 12 127 27 112 6 -6 8 -88 6 -219z
m-652 58 c4 -25 3 -41 -3 -41 -6 0 -13 19 -17 43 -4 23 -9 53 -12 67 l-5 25
15 -26 c9 -15 18 -45 22 -68z m-156 -2 c0 -11 -7 -19 -15 -19 -10 0 -15 10
-15 31 0 27 2 30 15 19 8 -7 15 -21 15 -31z m104 14 c8 -21 -10 -41 -24 -27
-11 11 -3 44 10 44 4 0 11 -8 14 -17z m256 -78 c0 -69 -9 -82 -28 -40 -16 34
-15 72 1 90 22 25 27 16 27 -50z m150 -25 c0 -21 -15 -27 -25 -10 -7 12 2 30
16 30 5 0 9 -9 9 -20z m-14 -95 c-4 -14 -11 -23 -16 -20 -11 7 -13 48 -3 58
13 14 26 -12 19 -38z m138 23 c3 -13 8 -59 11 -103 3 -44 10 -114 16 -157 9
-73 9 -77 -14 -102 -23 -24 -25 -25 -39 -8 -42 50 -75 138 -79 207 -3 55 -1
65 12 65 7 0 9 -12 7 -32 -6 -41 10 -100 25 -95 15 5 24 46 26 117 2 106 23
168 35 108z m-504 -67 c0 -21 -16 -2 -24 29 -7 24 -6 24 8 6 9 -11 16 -27 16
-35z m-131 -68 c1 -13 12 -30 26 -39 19 -13 25 -25 25 -55 0 -21 -5 -41 -11
-45 -8 -4 -9 1 -4 15 6 21 5 21 -15 9 -18 -11 -23 -11 -35 5 -21 29 -28 92
-14 134 10 33 13 35 20 18 4 -11 8 -30 8 -42z m148 -5 c-3 -7 -5 -2 -5 12 0
14 2 19 5 13 2 -7 2 -19 0 -25z m757 -190 c19 -55 31 -119 37 -193 5 -60 13
-154 19 -209 12 -121 13 -219 1 -212 -5 3 -11 18 -14 33 -2 16 -16 71 -31 123
-14 52 -30 146 -35 208 -6 61 -17 131 -25 155 -18 54 -30 168 -21 198 l8 23
17 -21 c9 -12 29 -59 44 -105z m-783 2 c9 -31 9 -43 -1 -54 -21 -27 -50 -2
-50 43 0 21 3 41 7 44 16 17 33 4 44 -33z m632 -7 c16 -41 32 -117 42 -198 11
-90 16 -106 33 -103 21 4 41 -50 41 -109 1 -31 -3 -43 -14 -43 -39 0 -75 80
-75 169 0 28 -3 51 -7 51 -11 0 -41 130 -49 208 -8 71 6 83 29 25z m-334 -90
c19 -28 31 -59 30 -77 0 -27 -5 -20 -40 48 -21 44 -39 81 -39 83 0 12 21 -12
49 -54z m-384 -49 c3 -13 7 -35 10 -48 3 -13 22 -46 44 -73 21 -27 46 -64 56
-82 9 -18 25 -35 35 -38 10 -3 23 -18 29 -34 5 -16 14 -29 20 -29 5 0 19 -26
31 -57 46 -124 190 -389 165 -303 -4 14 -26 70 -47 125 -62 154 -69 177 -66
199 3 18 10 14 61 -33 66 -63 71 -54 28 49 -17 40 -26 72 -20 75 5 4 12 0 15
-8 3 -9 16 -18 30 -21 24 -6 84 -78 84 -101 0 -7 19 -42 43 -78 23 -37 54 -86
68 -110 25 -42 29 -44 84 -51 76 -9 93 -19 101 -64 4 -20 29 -81 55 -134 27
-54 46 -98 42 -98 -3 0 3 -10 14 -22 22 -24 57 -130 50 -151 -4 -13 -87 130
-87 151 0 6 -9 12 -20 12 -12 0 -36 16 -56 35 -19 20 -45 35 -58 35 -12 0 -33
11 -46 25 l-24 25 -26 -25 -27 -26 -6 29 c-3 15 -15 39 -26 53 l-20 24 -1 -62
c0 -35 -4 -63 -8 -63 -11 0 -79 91 -93 125 l-12 30 -7 -30 -6 -30 -17 33 c-10
17 -22 32 -27 32 -14 0 -3 -40 36 -131 49 -115 85 -219 75 -219 -21 0 -76 93
-66 110 3 6 -1 10 -9 10 -9 0 -16 8 -16 19 0 10 -13 35 -30 56 -16 20 -32 54
-35 74 -12 70 -16 81 -30 81 -11 0 -15 -11 -15 -37 0 -21 -4 -45 -10 -53 -7
-11 -11 -8 -20 15 -24 68 -33 85 -48 97 -12 10 -16 10 -19 1 -7 -19 -23 -16
-23 3 0 9 -11 27 -25 40 -14 13 -25 34 -25 48 0 15 -13 38 -35 58 -19 18 -49
60 -67 92 -37 66 -58 82 -58 42 0 -63 -35 -29 -95 93 -19 39 -35 80 -35 91 0
11 -4 20 -10 20 -5 0 -10 16 -10 35 0 41 11 45 34 10 20 -31 62 -34 71 -5 4
11 -3 48 -14 83 -24 75 -37 146 -24 132 5 -5 21 -27 37 -47 31 -43 48 -47 70
-16 14 19 14 24 1 38 -8 9 -15 23 -15 31 1 21 39 -28 45 -57z m194 -47 c23
-23 10 -29 -14 -7 -24 23 -33 59 -18 74 5 4 11 -7 14 -24 4 -18 12 -37 18 -43z
m48 -34 c-3 -10 -5 -2 -5 17 0 19 2 27 5 18 2 -10 2 -26 0 -35z m970 -60 c-3
-10 -5 -2 -5 17 0 19 2 27 5 18 2 -10 2 -26 0 -35z m-597 -133 c0 -13 -1 -13
-10 0 -5 8 -10 22 -10 30 0 13 1 13 10 0 5 -8 10 -22 10 -30z m71 -14 c11 -12
12 -46 1 -46 -5 0 -15 15 -24 33 -12 26 -13 38 -5 53 11 18 12 18 15 -6 2 -14
8 -29 13 -34z m209 -325 c0 -15 5 -42 11 -59 16 -45 5 -63 -14 -25 -19 35 -23
113 -7 113 6 0 10 -13 10 -29z m-432 -228 c24 -55 36 -93 28 -93 -7 0 -35 54
-51 101 -20 55 -3 49 23 -8z m173 -207 c33 -65 57 -121 54 -125 -21 -20 -116
157 -131 241 -8 46 4 27 77 -116z m151 66 c76 -84 156 -227 144 -258 -3 -8 5
-43 18 -77 13 -34 33 -96 44 -137 11 -41 24 -84 28 -95 7 -20 7 -20 -14 -1
-12 11 -27 36 -32 56 -6 21 -17 43 -25 50 -8 7 -15 22 -15 34 0 11 -7 30 -15
40 -8 11 -15 30 -15 43 0 13 -16 55 -35 93 -19 38 -35 75 -35 82 0 7 -6 24
-13 38 -32 59 -61 107 -78 129 -43 54 -6 57 43 3z m-92 -9 c0 -8 16 -50 35
-93 19 -43 38 -93 41 -111 5 -32 4 -31 -23 16 -16 28 -38 64 -50 80 -19 26
-28 72 -24 123 1 18 21 4 21 -15z m121 -300 c11 -29 29 -135 24 -141 -6 -6
-53 92 -55 113 -7 59 13 75 31 28z m913 -105 c10 -23 12 -39 6 -43 -10 -6 -22
17 -34 70 -10 39 7 23 28 -27z m24 -135 c-2 -10 -10 -18 -18 -18 -8 0 -16 8
-18 18 -2 12 3 17 18 17 15 0 20 -5 18 -17z m-948 -30 c0 -17 -5 -16 -24 3
-23 22 -20 37 4 22 11 -7 20 -18 20 -25z m75 24 c6 0 20 3 32 7 19 6 23 3 28
-18 17 -85 19 -79 -14 -62 -60 32 -125 102 -73 81 9 -4 22 -8 27 -8z m2402
-14 c-9 -9 -19 -14 -23 -11 -10 10 6 28 24 28 15 0 15 -1 -1 -17z m-2439 -83
c7 -21 -20 -6 -37 21 l-16 24 24 -16 c14 -9 27 -22 29 -29z m2432 24 c0 -17
-22 -14 -28 4 -2 7 3 12 12 12 9 0 16 -7 16 -16z m-710 -40 c0 -12 -6 -27 -14
-33 -20 -17 -30 18 -16 55 9 23 13 25 20 14 6 -8 10 -25 10 -36z m-680 -38
c10 -28 40 -220 40 -260 0 -16 -6 -26 -15 -26 -21 0 -55 121 -62 223 -5 77 -4
87 11 87 9 0 21 -11 26 -24z m-700 -195 c0 -14 -18 -23 -30 -16 -6 4 -8 11 -5
16 8 12 35 12 35 0z m2684 -46 c-6 -16 -34 -21 -34 -7 0 13 11 22 26 22 8 0
11 -6 8 -15z m-1358 -42 c-11 -11 -19 6 -11 24 8 17 8 17 12 0 3 -10 2 -21 -1
-24z m494 -56 c0 -18 -7 -42 -15 -53 -13 -18 -14 -16 -15 27 0 25 3 49 7 52
14 15 23 5 23 -26z m1469 -18 c-6 -12 -45 -37 -87 -56 -43 -20 -90 -46 -105
-59 -16 -13 -34 -24 -40 -24 -23 1 95 98 156 129 75 37 92 40 76 10z m-149 2
c0 -12 -68 -70 -109 -94 -17 -10 -31 -14 -31 -8 0 18 52 72 89 91 41 22 51 24
51 11z m3100 -1064 c0 -18 -2 -19 -10 -7 -13 20 -13 43 0 35 6 -3 10 -16 10
-28z m-4207 -219 c-3 -24 -7 -44 -8 -46 -1 -1 -15 4 -30 12 l-28 15 32 30 c18
17 34 31 36 31 2 0 1 -19 -2 -42z m-268 -16 c0 -18 -20 -15 -23 4 -3 10 1 15
10 12 7 -3 13 -10 13 -16z m325 -7 c-13 -14 -28 -25 -34 -25 -11 1 40 50 51
50 4 0 -4 -11 -17 -25z m-207 -17 c9 0 15 -4 11 -9 -3 -5 0 -16 6 -24 19 -23
0 -18 -42 11 -43 30 -48 39 -15 28 12 -4 30 -7 40 -6z m114 -63 c20 -8 34 -18
31 -21 -7 -6 -78 22 -78 30 0 9 7 7 47 -9z m266 -80 c-4 -15 -36 -12 -41 3 -3
9 3 13 19 10 13 -1 23 -7 22 -13z m46 -46 c-7 -4 -17 -5 -22 -2 -5 3 -3 9 4
14 7 4 17 5 22 2 5 -3 3 -9 -4 -14z m-559 -578 c19 -5 88 -33 152 -64 172 -81
260 -172 228 -232 -11 -20 -11 -27 0 -40 7 -8 19 -15 27 -15 12 0 13 10 8 55
-5 38 -4 55 4 55 6 0 11 -5 11 -10 0 -6 26 -29 58 -53 64 -47 82 -62 139 -115
21 -20 57 -49 81 -64 26 -17 42 -35 42 -48 0 -11 7 -20 15 -20 9 0 27 -7 40
-16 14 -9 32 -13 41 -10 11 4 14 1 9 -13 -5 -15 -1 -18 20 -13 15 2 25 0 25
-7 0 -6 34 -47 76 -91 58 -60 77 -87 78 -109 1 -22 4 -27 13 -19 9 7 21 5 40
-7 l27 -18 -23 -9 c-21 -8 -19 -10 29 -36 55 -28 65 -39 75 -84 3 -16 12 -28
20 -28 7 0 21 -9 29 -21 9 -13 19 -18 27 -14 9 6 11 1 7 -19 -5 -23 -3 -26 15
-20 13 4 17 2 13 -5 -15 -24 -47 -8 -103 52 -54 59 -113 108 -113 93 0 -3 9
-23 20 -43 21 -40 25 -63 11 -63 -5 0 -34 34 -66 76 -70 93 -131 154 -156 154
-26 0 -84 53 -104 96 -18 39 -40 53 -57 36 -18 -18 8 -66 78 -143 35 -40 64
-75 64 -79 0 -4 -11 -15 -25 -24 -24 -16 -27 -16 -53 1 -15 10 -36 23 -47 29
-11 6 -21 22 -23 35 -9 86 -40 138 -87 153 -11 3 -30 26 -43 50 -14 25 -50 65
-88 95 -35 28 -64 56 -64 62 0 6 -6 9 -14 6 -7 -3 -26 3 -42 14 -37 24 -44 24
-44 -3 0 -18 -2 -20 -9 -9 -5 8 -13 72 -16 143 -4 71 -11 130 -14 132 -4 3
-23 -1 -44 -7 -34 -11 -37 -15 -32 -39 4 -14 1 -29 -5 -33 -6 -4 -8 -20 -4
-41 5 -26 2 -40 -11 -54 -24 -26 -55 -26 -55 -1 0 11 -5 23 -10 26 -6 3 -18
22 -28 42 -12 23 -30 40 -53 48 -19 7 -42 16 -51 20 -14 5 -18 2 -18 -15 0
-18 -8 -12 -49 32 -27 29 -45 55 -40 56 13 5 11 22 -3 22 -6 0 -20 -8 -30 -17
-17 -15 -20 -15 -28 -3 -15 23 -12 76 5 90 14 12 14 15 0 30 -22 24 -18 46 12
70 19 15 35 20 53 15 14 -3 41 -10 60 -14z m1230 -21 c0 -14 -12 -12 -38 6
-33 23 -27 37 8 19 17 -9 30 -20 30 -25z m-571 -820 c1 -33 -2 -41 -9 -30 -5
8 -9 38 -9 65 1 64 17 32 18 -35z m302 -61 c30 -60 18 -69 -14 -11 -15 27 -27
53 -27 56 0 16 22 -8 41 -45z m85 -126 c-4 -4 -11 -1 -16 7 -16 25 -11 35 7
17 9 -9 13 -20 9 -24z m1780 -248 c16 -12 16 -14 3 -15 -9 0 -22 7 -29 15 -16
19 0 19 26 0z m1400 -191 c-13 -18 -14 -29 -6 -44 8 -16 8 -20 -4 -20 -8 0
-17 -6 -19 -12 -3 -7 -6 5 -6 27 -1 45 40 125 47 92 2 -10 -4 -29 -12 -43z
m181 -17 c4 -35 11 -47 29 -56 32 -14 38 -49 24 -129 -18 -96 -24 -105 -28
-39 -2 42 -7 57 -17 57 -10 0 -15 11 -15 30 0 17 -9 43 -21 59 -19 26 -20 32
-8 84 15 64 29 62 36 -6z m-297 -16 c7 -15 4 -24 -16 -45 -34 -33 -45 -26 -32
22 16 59 26 63 48 23z m-196 -35 c-3 -9 -10 -16 -15 -16 -6 0 -5 9 1 21 13 24
24 20 14 -5z m-5729 8 c14 -6 13 -9 -6 -30 -25 -27 -28 -28 -49 -14 -12 7 -12
12 4 29 21 23 26 24 51 15z m6101 -72 c-15 -15 -16 -15 -16 2 0 9 6 27 12 39
l13 22 3 -24 c2 -13 -3 -31 -12 -39z m-6132 -24 c-3 -4 -12 -8 -20 -8 -12 0
-12 4 -2 20 8 13 15 16 19 8 4 -7 5 -16 3 -20z m6002 -6 c-8 -9 -19 -13 -22
-9 -10 9 16 38 28 31 6 -4 4 -13 -6 -22z m191 -39 c-3 -10 -5 -4 -5 12 0 17 2
24 5 18 2 -7 2 -21 0 -30z m-67 18 c0 -17 -12 -41 -21 -41 -10 0 -12 33 -2 43
9 10 23 9 23 -2z m-5950 -52 c13 -22 6 -69 -10 -69 -13 0 -50 41 -50 55 0 15
21 35 37 35 7 0 17 -9 23 -21z m6186 -55 c12 -46 -17 -204 -37 -204 -6 0 -8
19 -5 48 3 26 8 77 12 115 6 69 19 87 30 41z m-283 -67 c-15 -47 -33 -55 -33
-15 0 19 38 73 46 65 2 -1 -4 -24 -13 -50z m187 -119 c-10 -37 -23 -47 -34
-29 -3 5 1 28 9 51 8 23 15 57 15 75 0 17 3 35 8 39 12 13 14 -96 2 -136z
m-50 103 c0 -12 -20 -25 -27 -18 -7 7 6 27 18 27 5 0 9 -4 9 -9z m-10 -62 c0
-29 -18 -59 -35 -59 -19 0 -19 14 0 50 18 35 35 39 35 9z"/>
<path  d="M1500 11806 c0 -8 5 -18 10 -21 6 -3 10 1 10 9 0 8 -4 18 -10 21 -5
3 -10 -1 -10 -9z"/>
<path d="M1772 11379 c2 -6 8 -10 13 -10 5 0 11 4 13 10 2 6 -4 11 -13 11 -9
0 -15 -5 -13 -11z"/>
<path d="M1920 11371 c0 -11 65 -61 81 -61 17 0 -20 39 -53 56 -16 8 -28 10
-28 5z"/>
<path d="M1910 11320 c0 -14 78 -52 98 -48 11 3 -1 14 -35 31 -58 30 -63 31
-63 17z"/>
<path d="M2465 11048 c10 -33 51 -102 69 -118 14 -11 16 -9 16 14 0 14 5 26
11 26 6 0 -1 14 -15 31 -14 17 -26 34 -26 38 0 7 -44 31 -56 31 -3 0 -2 -10 1
-22z"/>
<path d="M1610 10866 c0 -16 5 -26 15 -26 8 0 15 6 15 14 0 7 -7 19 -15 26
-13 11 -15 8 -15 -14z"/>
<path d="M1670 10783 c0 -4 17 -24 37 -45 40 -41 34 -47 -22 -24 -41 18 -47 5
-13 -31 42 -45 -6 -22 -102 48 -16 13 -32 20 -35 17 -3 -3 8 -29 23 -59 25
-47 38 -59 96 -89 53 -27 80 -34 124 -35 31 0 62 -4 68 -8 7 -4 14 1 17 13 6
23 31 25 88 8 85 -25 55 26 -54 91 -45 26 -109 65 -141 85 -57 34 -86 44 -86
29z"/>
<path d="M1910 10550 c0 -5 9 -10 21 -10 11 0 17 5 14 10 -3 6 -13 10 -21 10
-8 0 -14 -4 -14 -10z"/>
<path d="M1680 10542 c23 -15 97 -27 85 -14 -5 6 -30 14 -55 17 -31 4 -40 3
-30 -3z"/>
<path d="M4486 11526 c-30 -23 -30 -23 -9 -35 29 -15 33 -14 33 8 0 11 5 23
10 26 12 7 13 25 3 25 -5 0 -21 -11 -37 -24z"/>
<path d="M4653 11470 c-31 -18 -53 -63 -39 -77 7 -7 96 76 96 89 0 14 -24 9
-57 -12z"/>
<path d="M4565 11379 c-4 -6 -5 -13 -2 -16 7 -7 27 6 27 18 0 12 -17 12 -25
-2z"/>
<path d="M2870 11307 c0 -38 4 -67 10 -67 12 0 13 10 10 70 -3 74 -20 71 -20
-3z"/>
<path d="M4925 11279 c-71 -43 -176 -99 -233 -125 -56 -26 -101 -49 -99 -51 2
-1 35 6 73 17 38 11 94 26 124 34 41 12 75 32 135 82 44 37 93 78 109 91 16
13 27 25 25 27 -2 1 -62 -32 -134 -75z"/>
<path d="M4395 11189 c-11 -17 0 -20 21 -4 17 13 17 14 2 15 -9 0 -20 -5 -23
-11z"/>
<path  d="M3510 11155 c0 -10 7 -15 18 -13 21 4 19 22 -2 26 -10 2 -16 -3 -16
-13z"/>
<path d="M3327 11134 c-4 -4 -7 -19 -7 -33 0 -16 -17 -47 -46 -81 -49 -59 -84
-120 -84 -145 0 -16 5 -19 53 -29 25 -6 27 -5 21 18 -4 17 4 43 26 85 34 64
99 144 100 124 0 -6 -4 -15 -10 -18 -18 -11 -10 -25 15 -25 21 0 25 5 25 28 0
34 -7 44 -45 62 -16 8 -33 16 -36 17 -3 2 -8 0 -12 -3z"/>
<path d="M4346 11121 c-11 -12 -17 -23 -14 -26 8 -9 41 21 37 34 -3 9 -11 6
-23 -8z"/>
<path d="M3780 11114 c0 -8 43 -43 54 -44 5 0 3 7 -4 16 -15 17 -50 38 -50 28z"/>
<path d="M4361 11072 c-7 -13 -11 -28 -8 -35 2 -7 9 -2 16 11 7 13 11 28 8 35
-2 7 -9 2 -16 -11z"/>
<path d="M4660 11065 c-16 -19 0 -19 26 0 16 12 16 14 3 15 -9 0 -22 -7 -29
-15z"/>
<path d="M4790 11045 c-16 -19 0 -19 26 0 16 12 16 14 3 15 -9 0 -22 -7 -29
-15z"/>
<path d="M4796 11004 c-60 -30 -121 -54 -136 -54 -15 0 -47 -11 -71 -23 -58
-31 -110 -48 -178 -57 -77 -11 -165 -36 -169 -49 -2 -6 -11 -11 -19 -11 -10 0
-13 -6 -9 -16 3 -9 6 -18 6 -20 0 -2 7 -4 15 -4 8 0 15 6 15 14 0 28 76 37 87
10 3 -9 1 -39 -6 -67 -6 -27 -10 -51 -9 -53 4 -3 248 80 361 123 78 29 161 83
140 90 -7 3 -27 -4 -45 -13 -43 -22 -124 -44 -165 -44 l-33 0 18 33 c15 26 37
40 113 72 120 51 169 77 193 104 28 30 14 26 -108 -35z m-356 -239 c0 -8 -7
-15 -15 -15 -8 0 -15 7 -15 15 0 8 7 15 15 15 8 0 15 -7 15 -15z"/>
<path  d="M4730 11025 c-16 -19 -3 -40 16 -24 15 13 19 39 5 39 -5 0 -14 -7
-21 -15z"/>
<path d="M4915 10989 c-94 -43 -115 -56 -115 -70 0 -7 76 20 146 53 28 13 81
57 69 57 -5 0 -50 -18 -100 -40z"/>
<path d="M4004 10966 c-16 -14 -24 -26 -18 -26 17 0 60 37 53 45 -4 3 -20 -5
-35 -19z"/>
<path d="M4276 10974 c-4 -11 -1 -14 11 -12 9 2 18 9 21 16 6 18 -25 15 -32
-4z"/>
<path d="M4205 10960 c-11 -17 5 -32 21 -19 7 6 11 15 8 20 -7 12 -21 11 -29
-1z"/>
<path d="M4520 10960 c-8 -5 -12 -11 -9 -14 7 -8 49 5 49 15 0 12 -21 11 -40
-1z"/>
<path d="M4303 10922 c-62 -40 -63 -46 -8 -38 97 13 175 28 175 35 0 11 -63
31 -96 30 -16 0 -48 -12 -71 -27z"/>
<path d="M3305 10923 c-16 -16 -16 -17 1 -30 26 -19 36 -16 24 6 -14 27 -13
34 5 27 8 -3 15 -1 15 4 0 16 -27 12 -45 -7z"/>
<path d="M3710 10878 c-27 -37 -37 -58 -26 -58 2 0 20 7 39 15 40 17 57 39 50
66 -8 30 -31 22 -63 -23z"/>
<path d="M4045 10880 c-3 -5 1 -10 9 -10 8 0 18 5 21 10 3 6 -1 10 -9 10 -8 0
-18 -4 -21 -10z"/>
<path d="M3291 10645 c-34 -39 -40 -61 -15 -51 9 3 18 6 20 6 3 0 2 5 -1 10
-3 6 3 24 15 40 29 41 19 38 -19 -5z"/>
<path d="M3785 10665 c-21 -8 -46 -23 -55 -33 -8 -10 -35 -30 -60 -44 -25 -15
-56 -38 -69 -52 -14 -14 -30 -26 -38 -26 -7 0 -13 -7 -13 -15 0 -9 -9 -15 -25
-15 -14 0 -25 -6 -25 -14 0 -7 -14 -31 -31 -52 -29 -36 -69 -106 -69 -119 0
-4 50 38 110 93 73 65 129 107 165 123 31 13 55 30 55 39 0 8 26 40 57 72 61
62 61 65 -2 43z"/>
<path d="M3130 10630 c-19 -10 -48 -22 -65 -27 -24 -7 -34 -20 -56 -73 -15
-35 -32 -66 -38 -68 -14 -5 -14 -32 -1 -32 6 0 26 23 46 50 20 28 38 49 40 47
2 -2 -3 -23 -11 -47 -8 -24 -14 -45 -12 -47 3 -2 31 40 63 94 32 53 63 103 67
110 4 7 7 13 5 12 -2 -1 -19 -9 -38 -19z"/>
<path d="M3933 10621 c-23 -16 -48 -39 -56 -52 -10 -13 -22 -19 -31 -16 -9 4
-16 1 -16 -5 0 -7 -10 -22 -21 -34 l-21 -23 46 14 c25 8 46 11 46 7 0 -4 -42
-28 -93 -54 -149 -76 -255 -145 -253 -165 1 -14 -5 -17 -26 -15 -22 2 -28 -1
-28 -18 0 -37 43 -18 145 65 60 49 107 75 170 95 22 7 51 21 64 32 25 19 43
16 23 -4 -9 -9 -8 -16 4 -30 19 -20 20 -19 -54 -38 -31 -8 -42 -15 -38 -26 3
-9 -6 -20 -25 -30 -20 -10 -29 -21 -25 -30 4 -11 0 -13 -21 -8 -18 5 -24 4
-19 -5 7 -11 1 -15 -46 -25 -16 -4 -28 -11 -28 -18 0 -7 21 -9 65 -6 54 5 65
3 65 -9 0 -11 4 -13 13 -7 6 5 62 7 122 4 l110 -5 -73 -14 c-40 -8 -75 -18
-77 -22 -3 -4 39 -15 92 -24 54 -10 109 -22 122 -27 21 -7 22 -11 10 -26 -8
-9 -19 -27 -26 -38 -11 -20 -10 -21 30 -17 48 4 79 -9 61 -27 -6 -6 -33 -15
-60 -19 l-49 -8 40 -7 c117 -23 150 -33 147 -46 -2 -9 5 -11 28 -7 23 5 35 2
50 -13 12 -12 33 -20 54 -20 18 0 53 -7 76 -15 53 -19 70 -8 70 43 0 19 7 43
15 52 14 16 13 21 -18 58 -19 22 -40 54 -47 72 -10 25 -18 30 -34 26 -12 -3
-41 -8 -66 -12 l-45 -7 23 25 c27 30 28 38 2 38 -24 0 -26 13 -5 30 8 7 15 21
15 32 0 10 4 17 9 14 4 -3 16 3 25 13 15 17 15 19 -5 37 -17 15 -34 19 -80 17
-70 -3 -85 13 -49 52 29 30 23 59 -13 63 -29 4 -34 11 -15 30 9 9 5 12 -21 12
-18 0 -44 9 -57 19 -20 15 -36 18 -77 15 -54 -5 -85 6 -73 25 4 6 12 11 17 11
6 0 7 -4 4 -10 -3 -5 -1 -10 4 -10 6 0 11 13 11 28 0 15 5 33 12 40 9 9 7 12
-11 12 -14 0 -25 7 -28 20 -7 26 -13 25 -60 -9z m37 -26 c0 -8 -7 -15 -15 -15
-26 0 -18 20 13 29 1 1 2 -6 2 -14z m170 -286 c-16 -10 -95 -34 -150 -44 -61
-12 -22 8 68 36 83 26 113 29 82 8z m-26 -119 c-12 -12 -123 -27 -112 -16 3 4
28 11 55 16 69 11 68 11 57 0z m176 -26 c0 -8 -91 -46 -97 -40 -6 5 47 30 95
45 1 1 2 -2 2 -5z m-183 -80 c-3 -3 -12 -4 -19 -1 -8 3 -5 6 6 6 11 1 17 -2
13 -5z m361 -107 c6 -6 14 -25 18 -42 l7 -29 -41 33 c-23 18 -42 37 -42 42 0
14 46 11 58 -4z"/>
<path d="M3789 10584 l-24 -27 28 18 c15 9 27 21 27 26 0 14 -5 11 -31 -17z"/>
<path d="M2862 10495 c0 -16 2 -22 5 -12 2 9 2 23 0 30 -3 6 -5 -1 -5 -18z"/>
<path d="M3100 10385 c-13 -14 -19 -25 -13 -25 12 0 48 38 41 45 -2 3 -15 -6
-28 -20z"/>
<path d="M3468 10160 c-67 -45 -84 -70 -23 -36 56 32 81 53 74 61 -3 3 -26 -9
-51 -25z"/>
<path d="M3788 10173 c6 -2 18 -2 25 0 6 3 1 5 -13 5 -14 0 -19 -2 -12 -5z"/>
<path d="M3955 10120 c3 -5 12 -10 20 -10 8 0 17 5 20 10 4 6 -5 10 -20 10
-15 0 -24 -4 -20 -10z"/>
<path d="M2388 9705 c-12 -26 -4 -46 11 -29 5 5 12 19 16 32 9 31 -12 29 -27
-3z"/>
<path d="M2169 9670 c-31 -25 -13 -26 26 0 20 13 24 20 14 20 -9 0 -27 -9 -40
-20z"/>
<path d="M2580 9597 c0 -19 16 -31 24 -18 3 5 -1 14 -9 21 -12 10 -15 10 -15
-3z"/>
<path d="M5660 7951 c0 -26 79 -120 147 -175 90 -73 132 -116 114 -116 -7 0
-26 14 -43 30 -27 28 -68 41 -68 22 0 -5 62 -74 139 -153 110 -114 141 -141
152 -132 11 9 19 8 33 -3 11 -8 23 -14 28 -14 21 0 0 29 -87 119 -85 87 -114
124 -85 106 17 -11 11 11 -11 39 -12 15 -29 46 -38 70 -9 23 -25 53 -36 67
-57 72 -245 179 -245 140z m208 -147 c22 -19 32 -33 24 -37 -6 -4 -36 17 -69
49 -48 45 -52 52 -25 37 19 -10 50 -32 70 -49z"/>
<path d="M4140 7588 c-84 -72 -159 -118 -192 -118 -15 0 -28 4 -28 9 0 4 34
36 76 71 41 34 73 65 70 67 -6 7 -99 -52 -116 -73 -7 -7 -23 -14 -35 -14 -12
0 -42 -16 -66 -35 -44 -34 -169 -172 -169 -185 0 -4 19 -10 41 -14 35 -6 50
-2 98 25 81 46 185 125 282 214 46 43 91 84 99 91 8 8 11 14 8 14 -4 0 -34
-24 -68 -52z m-222 -150 c-6 -18 -100 -88 -118 -88 -9 0 7 22 37 50 48 47 90
66 81 38z"/>
<path d="M7742 7598 c-13 -13 11 -63 116 -238 93 -156 99 -164 106 -152 3 5
-10 42 -30 82 -39 83 -40 108 -1 66 34 -37 63 -114 93 -251 13 -60 28 -119 34
-130 29 -64 -7 145 -54 313 -28 96 -55 165 -79 197 -20 27 -31 14 -16 -19 7
-14 9 -29 5 -33 -9 -9 -100 81 -135 134 -20 30 -31 39 -39 31z"/>
<path d="M7796 6887 c-19 -79 -37 -245 -41 -387 l-4 -165 15 130 c37 316 49
445 43 445 -4 0 -9 -10 -13 -23z"/>
<path d="M8143 6835 c0 -44 2 -61 4 -37 2 23 2 59 0 80 -2 20 -4 1 -4 -43z"/>
<path d="M5750 6808 c0 -7 18 -42 40 -78 39 -63 78 -170 115 -315 23 -90 38
-108 30 -35 -17 138 -47 279 -62 288 -5 4 -20 26 -31 48 -37 72 -92 127 -92
92z"/>
<path d="M8243 6710 c0 -47 2 -66 4 -42 2 23 2 61 0 85 -2 23 -4 4 -4 -43z"/>
<path d="M5920 6718 c0 -25 40 -180 51 -197 17 -27 3 119 -16 167 -16 40 -35
56 -35 30z"/>
<path d="M4120 6526 c-32 -56 -50 -77 -50 -57 0 27 -21 6 -49 -50 -36 -71 -48
-126 -33 -141 13 -13 25 11 42 79 6 23 16 45 22 49 8 5 9 -16 5 -79 -4 -50 -3
-88 2 -92 14 -8 18 2 46 131 14 65 32 139 40 163 8 25 13 46 11 49 -3 2 -19
-21 -36 -52z"/>
<path d="M7877 6403 c-32 -138 -43 -211 -29 -198 16 15 72 305 59 305 -3 0
-17 -48 -30 -107z"/>
<path d="M8636 6390 c3 -30 7 -82 10 -115 l4 -60 -20 55 c-43 115 -54 75 -18
-66 13 -54 30 -96 45 -112 15 -16 23 -37 23 -59 0 -19 5 -44 11 -56 7 -11 17
-62 24 -112 12 -89 13 -90 26 -57 7 17 17 32 21 32 4 0 8 -51 8 -114 0 -87 3
-116 14 -126 8 -6 16 -24 18 -38 l3 -27 15 25 c11 18 15 64 17 170 3 132 2
142 -11 115 -8 -16 -15 -24 -15 -17 -1 7 -16 35 -35 62 -29 42 -35 61 -41 127
-6 80 -48 261 -84 368 l-21 60 6 -55z"/>
<path d="M7955 6319 c-11 -31 -22 -109 -15 -109 5 0 13 26 18 58 10 55 8 80
-3 51z"/>
<path d="M5935 6120 c-8 -12 14 -247 26 -278 5 -14 14 -20 20 -16 8 5 10 35 5
101 -10 145 -31 225 -51 193z"/>
<path d="M8077 6088 c-11 -46 -18 -203 -9 -188 6 8 13 59 17 113 7 92 4 123
-8 75z"/>
<path d="M5876 6044 c-8 -21 -6 -300 3 -339 5 -24 8 -27 16 -15 11 18 20 307
11 345 -7 28 -21 33 -30 9z"/>
<path d="M4676 5924 c-9 -24 -7 -28 9 -14 17 14 20 30 6 30 -5 0 -12 -7 -15
-16z"/>
<path d="M4085 5845 c11 -48 25 -195 25 -260 0 -42 3 -56 10 -45 24 37 3 265
-29 315 -11 18 -12 17 -6 -10z"/>
<path d="M4595 5764 c-73 -171 -139 -354 -130 -362 3 -3 7 -3 9 -1 9 10 146
392 142 396 -3 3 -12 -12 -21 -33z"/>
<path d="M8125 5728 c10 -104 26 -140 21 -46 -2 42 -9 85 -16 95 -8 14 -10 3
-5 -49z"/>
<path d="M5416 5772 c-3 -6 3 -29 13 -53 11 -24 24 -82 30 -129 17 -131 21
-150 33 -150 16 0 6 268 -13 305 -14 30 -51 45 -63 27z"/>
<path d="M6992 5763 c-6 -2 -10 -9 -7 -14 4 -5 1 -26 -4 -46 -12 -44 0 -66 24
-42 26 26 36 77 19 94 -9 8 -16 15 -17 14 -1 0 -8 -3 -15 -6z"/>
<path d="M8555 5629 c2 -52 9 -106 15 -120 14 -32 5 143 -10 186 -8 23 -9 8
-5 -66z"/>
<path d="M4757 5663 c-39 -62 -90 -163 -84 -169 5 -6 40 52 86 144 35 69 34
82 -2 25z"/>
<path d="M6832 5610 c-6 -16 -16 -30 -23 -30 -6 0 -9 -7 -5 -15 6 -17 -9 -21
-19 -5 -13 21 -34 8 -45 -27 -18 -56 -27 -60 -44 -19 -17 42 -33 46 -41 11
-17 -81 -18 -83 -26 -34 -4 26 -14 59 -22 75 l-15 28 -6 -40 c-13 -89 -38
-325 -34 -329 12 -12 74 57 104 116 19 38 37 69 41 69 3 0 12 -8 19 -17 12
-16 15 -16 23 -3 10 17 50 69 95 125 21 26 30 48 30 77 1 50 -18 60 -32 18z"/>
<path d="M4186 5579 c-21 -54 -25 -102 -11 -109 10 -5 38 125 32 145 -2 5 -11
-11 -21 -36z"/>
<path d="M7184 5595 c-19 -14 -19 -14 1 -14 11 0 36 7 55 14 l35 13 -36 1
c-19 1 -44 -6 -55 -14z"/>
<path d="M4306 5575 c-9 -26 -7 -117 3 -111 14 9 25 106 13 118 -6 6 -12 4
-16 -7z"/>
<path d="M4948 5430 c-10 -69 -8 -307 1 -340 15 -50 21 50 13 225 -6 137 -9
159 -14 115z"/>
<path d="M7171 5449 c-18 -11 -31 -22 -28 -25 3 -3 38 -14 79 -25 122 -31 153
-21 78 26 -22 14 -40 30 -40 35 0 17 -54 11 -89 -11z"/>
<path d="M7235 5291 c-6 -11 17 -25 57 -35 15 -3 36 -20 48 -36 22 -31 50 -40
50 -16 0 7 -7 19 -15 26 -8 7 -15 21 -15 31 0 10 -9 23 -19 29 -25 13 -98 13
-106 1z"/>
<path d="M8182 5140 c0 -14 2 -19 5 -12 2 6 2 18 0 25 -3 6 -5 1 -5 -13z"/>
<path d="M8665 5074 c5 -11 10 -54 13 -96 4 -70 1 -84 -26 -143 -31 -64 -30
-81 4 -68 16 6 16 4 -2 -27 -10 -18 -30 -39 -42 -48 -19 -12 -23 -21 -18 -44
5 -24 -1 -36 -36 -74 -43 -47 -45 -60 -5 -50 34 8 173 152 175 181 1 6 9 27
18 48 13 29 15 40 6 46 -9 5 -9 20 0 63 9 45 9 64 -1 95 -23 68 -57 128 -76
132 -14 2 -16 -1 -10 -15z"/>
<path d="M8780 4711 c-43 -80 -87 -129 -192 -217 -134 -112 -165 -127 -267
-132 -79 -3 -97 0 -215 38 -126 40 -177 46 -145 16 8 -7 34 -21 59 -30 75 -29
94 -56 39 -56 -22 0 -50 14 -92 46 -64 48 -156 99 -164 91 -2 -3 8 -29 24 -59
15 -29 29 -56 31 -59 5 -12 -89 11 -187 45 -114 39 -174 51 -196 39 -12 -7 8
-21 80 -58 90 -47 128 -73 136 -92 2 -5 48 -41 101 -81 54 -39 109 -90 124
-112 15 -22 33 -40 40 -40 17 0 17 3 -1 47 -8 20 -13 38 -11 41 3 2 26 -3 52
-12 26 -9 51 -16 55 -16 4 0 9 21 11 48 3 47 3 47 36 44 42 -4 41 3 -5 27
l-38 20 38 1 c50 0 222 42 331 80 49 17 90 29 92 27 11 -11 -44 -38 -164 -82
-73 -26 -131 -50 -129 -52 3 -2 35 1 73 6 38 6 130 12 204 14 l135 5 93 98
c52 55 105 118 118 141 14 22 32 44 40 47 14 5 14 8 0 28 -15 22 -46 30 -77
22 -9 -3 -30 -26 -47 -53 -34 -55 -123 -131 -155 -131 -11 0 -29 -7 -39 -17
-10 -9 -18 -11 -18 -5 0 6 14 20 31 33 71 50 225 254 239 315 13 56 -6 48 -40
-15z m-45 -312 c-56 -58 -134 -119 -152 -119 -13 0 -13 3 -3 15 7 8 21 15 31
15 11 0 19 7 19 15 0 8 4 15 9 15 5 0 33 23 61 50 62 60 91 67 35 9z m-560
-69 c4 -6 -5 -10 -19 -10 -14 0 -26 5 -26 10 0 6 9 10 19 10 11 0 23 -4 26
-10z m-235 -95 c18 -22 2 -40 -20 -20 -10 9 -23 15 -30 13 -7 -2 -15 3 -17 10
-7 17 52 16 67 -3z"/>
<path d="M7060 4611 c0 -15 32 -26 97 -35 29 -4 84 -17 123 -30 39 -12 73 -19
76 -14 8 13 -35 45 -86 63 -58 21 -210 33 -210 16z"/>
<path d="M9207 4160 c-3 -19 -9 -58 -12 -86 -7 -67 -40 -192 -69 -263 -49
-121 -39 -157 13 -47 37 79 56 152 71 281 13 102 10 187 -3 115z"/>
<path d="M7601 4171 c5 -14 33 -30 178 -100 58 -28 107 -49 109 -46 13 12 -42
51 -133 96 -110 53 -160 69 -154 50z"/>
<path  d="M7247 4163 c-28 -7 -9 -23 29 -23 77 0 205 -94 250 -182 24 -47 44
-56 44 -19 0 27 -21 72 -60 129 -29 43 -44 54 -100 76 -60 24 -118 31 -163 19z"/>
<path d="M7030 4095 c-12 -13 -52 -34 -87 -46 -35 -11 -85 -38 -111 -59 -64
-52 -167 -158 -160 -165 8 -8 62 19 106 52 18 14 36 23 39 20 8 -9 -96 -107
-113 -107 -8 0 -17 -7 -20 -15 -3 -8 -26 -26 -50 -40 -42 -24 -59 -55 -31 -55
42 0 257 177 257 212 0 10 25 34 60 58 33 22 64 49 70 60 6 11 32 26 59 34 27
8 58 19 70 25 17 9 20 8 23 -11 2 -18 12 -24 40 -29 52 -8 62 1 42 40 -19 39
-48 51 -118 51 -43 0 -57 -5 -76 -25z m-85 -85 c-9 -14 -66 -43 -72 -36 -6 5
56 46 70 46 5 0 5 -5 2 -10z"/>
<path d="M9286 4038 c-2 -7 -9 -63 -15 -124 -6 -61 -22 -149 -35 -195 -32
-113 -41 -157 -28 -144 43 42 124 450 93 469 -6 4 -13 1 -15 -6z"/>
<path d="M7060 3961 c0 -22 181 -84 197 -67 11 11 -33 44 -75 56 -66 19 -122
24 -122 11z"/>
<path d="M6739 3719 c-24 -17 -84 -58 -134 -92 -61 -42 -96 -73 -107 -97 -12
-24 -34 -43 -70 -61 -80 -41 -39 -46 72 -10 76 26 102 40 148 82 113 103 104
117 -19 29 -46 -33 -90 -60 -96 -60 -29 0 -9 23 48 58 34 20 88 57 121 81 91
67 125 132 37 70z"/>
<path d="M9295 3593 c-3 -21 -15 -61 -25 -88 -24 -61 -24 -63 -2 -61 25 2 18
-37 -18 -105 -17 -31 -30 -64 -30 -73 0 -29 30 -17 47 19 9 19 20 35 25 35 4
0 8 9 8 19 0 11 5 23 11 27 8 4 10 28 6 68 -3 34 -2 83 3 110 8 51 4 86 -11
86 -4 0 -11 -17 -14 -37z"/>
<path d="M6544 3428 c-27 -18 -98 -56 -158 -83 -155 -71 -158 -100 -5 -50 113
38 239 118 239 152 0 21 -23 15 -76 -19z"/>
<path d="M9276 3249 c-3 -8 -10 -31 -16 -51 -6 -21 -35 -70 -65 -110 -29 -40
-51 -76 -49 -80 7 -10 42 3 60 23 9 10 21 19 25 19 12 0 -17 -110 -45 -170
l-25 -55 21 -8 c12 -4 24 -10 27 -12 2 -3 -19 -32 -47 -64 -29 -33 -52 -62
-52 -65 0 -3 8 -6 19 -6 25 0 86 69 101 114 10 33 10 39 -5 50 -16 12 -16 15
5 56 13 26 32 100 45 176 13 73 26 141 29 152 4 11 0 24 -9 32 -12 10 -16 10
-19 -1z"/>
<path d="M9292 2765 c-7 -16 -20 -48 -28 -71 -8 -22 -37 -69 -64 -105 -66 -87
-68 -113 -4 -64 57 44 120 180 112 242 l-4 28 -12 -30z"/>
<path d="M7420 2769 l-25 -11 30 -14 c17 -7 37 -13 46 -14 21 0 126 -69 178
-115 23 -21 57 -59 76 -86 24 -31 48 -52 71 -59 33 -11 40 -23 119 -185 73
-152 105 -206 105 -178 0 4 -20 58 -45 118 -25 61 -45 119 -45 129 0 10 -9 37
-19 60 -11 23 -22 52 -25 66 -10 46 -65 130 -85 130 -11 0 -22 6 -24 13 -3 6
-8 -3 -12 -20 -4 -18 -10 -33 -12 -33 -3 0 -39 32 -81 71 -42 40 -88 76 -102
82 -14 6 -34 19 -45 29 -27 23 -73 30 -105 17z"/>
<path d="M7293 2737 c-28 -16 -93 -75 -93 -85 0 -4 23 -30 51 -57 28 -28 62
-69 76 -93 15 -25 29 -40 35 -34 12 12 -16 85 -53 136 -41 57 -37 90 10 94 31
3 41 -3 110 -75 42 -43 90 -104 106 -135 27 -53 45 -72 45 -50 0 26 -31 105
-51 132 -55 72 -107 125 -148 152 -50 31 -57 32 -88 15z"/>
<path d="M7905 2573 c3 -23 25 -104 49 -180 25 -76 48 -151 52 -168 4 -16 20
-57 36 -90 15 -33 28 -72 28 -86 0 -17 8 -29 24 -37 13 -6 62 -62 109 -125 86
-115 121 -151 159 -163 58 -18 21 50 -48 86 -19 10 -42 42 -70 95 -47 88 -58
128 -20 72 34 -50 155 -157 178 -157 4 0 8 6 8 13 0 13 -21 36 -121 130 -50
48 -139 189 -159 252 -14 46 -66 105 -91 105 -23 0 -27 7 -66 122 -18 54 -42
115 -53 135 l-21 38 6 -42z"/>
<path d="M7090 2582 c0 -6 43 -56 95 -111 69 -72 95 -107 95 -126 0 -16 6 -25
16 -25 46 0 -26 198 -88 241 -33 24 -118 39 -118 21z"/>
<path d="M9234 2476 c-20 -30 -42 -57 -50 -60 -14 -5 -20 -46 -7 -46 3 0 21
12 40 26 18 14 39 23 46 21 19 -8 -163 -180 -227 -213 -57 -29 -73 -54 -35
-54 37 0 150 64 200 113 53 52 59 55 59 29 0 -55 -198 -270 -305 -331 -110
-63 -108 -61 -94 -77 19 -23 54 -16 115 25 75 50 265 238 298 294 46 79 59
248 21 269 -10 6 -14 17 -10 28 13 41 -17 27 -51 -24z"/>
<path d="M9380 2379 c-22 -28 -40 -62 -40 -75 0 -29 -41 -114 -64 -133 -9 -7
-13 -18 -10 -23 4 -6 2 -13 -4 -17 -6 -3 -24 -46 -41 -95 l-31 -90 21 -22 c17
-18 19 -29 14 -56 -11 -49 -33 -88 -74 -132 l-36 -40 34 28 c63 51 161 169
161 194 0 12 -6 9 -26 -9 l-26 -24 7 40 c4 22 32 101 61 176 30 75 54 144 54
153 0 9 7 27 14 39 13 19 38 137 30 137 -2 0 -22 -23 -44 -51z"/>
<path d="M8140 2309 c0 -39 148 -299 171 -299 13 0 11 7 -7 35 -36 55 -1 20
57 -57 114 -151 253 -274 236 -208 -6 24 -8 24 36 5 87 -36 88 -11 1 51 -37
26 -97 76 -134 111 -44 41 -70 59 -73 51 -8 -19 -69 52 -130 151 -43 71 -52
80 -57 62 -5 -22 -6 -22 -21 -4 -9 10 -28 39 -43 66 -27 47 -36 56 -36 36z
m140 -193 c0 -6 -7 -2 -15 8 -8 11 -15 25 -15 30 0 6 7 2 15 -8 8 -11 15 -25
15 -30z"/>
<path d="M8883 2065 c-45 -13 -112 -27 -148 -30 -36 -4 -68 -12 -72 -18 -11
-19 26 -35 70 -30 101 12 277 70 277 92 0 16 -35 12 -127 -14z"/>
<path d="M9055 1828 c-11 -6 -30 -22 -42 -35 -12 -12 -29 -23 -37 -23 -8 0
-17 -9 -21 -20 -14 -43 -137 -90 -236 -90 -65 0 -80 -11 -47 -34 16 -11 46
-16 102 -16 77 0 81 1 130 39 51 39 182 179 175 186 -2 2 -13 -1 -24 -7z"/>
<path d="M9220 1690 c-14 -11 -31 -20 -37 -20 -7 0 -13 -4 -13 -9 0 -6 -38
-54 -85 -108 -104 -120 -114 -154 -29 -97 62 41 104 86 104 110 0 12 20 46 45
75 56 66 62 86 15 49z"/>
<path d="M8607 1525 c-49 -34 -47 -42 3 -14 22 13 40 26 40 31 0 11 -1 11 -43
-17z"/>
<path d="M8407 1502 c-22 -24 -21 -32 1 -32 21 0 42 18 42 37 0 19 -24 16 -43
-5z"/>
<path d="M5087 2362 c-22 -24 -21 -35 3 -57 27 -24 50 -5 50 41 0 26 -4 34
-18 34 -11 0 -26 -8 -35 -18z"/>
<path d="M5173 2323 c-7 -2 -13 -15 -13 -28 0 -29 36 -44 56 -23 12 12 12 17
-2 36 -16 23 -20 24 -41 15z"/>
<path d="M5516 2143 c-12 -12 -6 -44 10 -50 8 -3 13 -12 10 -19 -6 -15 10 -29
18 -16 7 11 -12 79 -23 86 -5 3 -11 3 -15 -1z"/>
<path d="M5890 1915 c-10 -12 -8 -20 10 -42 11 -15 31 -43 43 -62 26 -40 70
-75 87 -69 7 2 4 13 -10 30 -17 22 -19 31 -10 48 9 17 8 20 -12 17 -19 -2 -24
4 -26 28 -6 55 -54 84 -82 50z"/>
<path d="M5274 1487 c15 -19 26 -39 26 -45 0 -22 20 -12 30 14 14 35 14 33
-25 50 -52 21 -59 17 -31 -19z"/>
<path d="M5020 1475 c0 -10 7 -15 18 -13 21 4 19 22 -2 26 -10 2 -16 -3 -16
-13z"/>
<path d="M3368 493 c6 -2 18 -2 25 0 6 3 1 5 -13 5 -14 0 -19 -2 -12 -5z"/>
</g>
</svg>
