<?xml version="1.0" standalone="no"?>
<!DOCTYPE svg PUBLIC "-//W3C//DTD SVG 20010904//EN"
 "http://www.w3.org/TR/2001/REC-SVG-20010904/DTD/svg10.dtd">
<svg version="1.0" xmlns="http://www.w3.org/2000/svg"
 width="1280.000000pt" height="810.000000pt" viewBox="0 0 1280.000000 810.000000"
 preserveAspectRatio="xMidYMid meet">
<metadata>
Created by potrace 1.15, written by Peter Selinger 2001-2017
</metadata>
<g transform="translate(0.000000,810.000000) scale(0.100000,-0.100000)"
fill="white" stroke="none">
<path d="M2083 7269 c-76 -13 -142 -41 -201 -84 -119 -89 -220 -294 -244 -495
-13 -111 -15 -116 -53 -139 -56 -33 -75 -85 -75 -208 0 -103 0 -103 -34 -140
-43 -48 -97 -147 -98 -182 -1 -14 7 -65 17 -113 l19 -87 -22 -44 c-12 -24 -22
-52 -22 -61 0 -9 -7 -31 -16 -49 -24 -44 -36 -170 -24 -238 12 -67 25 -246 29
-395 1 -22 10 -40 28 -55 88 -77 174 -177 189 -221 10 -32 30 -60 58 -85 24
-21 55 -63 69 -93 16 -34 40 -64 61 -78 56 -38 182 -83 320 -113 81 -18 143
-38 166 -53 50 -33 142 -64 225 -75 39 -6 122 -19 185 -31 63 -11 151 -25 195
-31 43 -5 120 -16 170 -24 149 -25 230 -20 322 17 70 28 90 32 203 35 114 3
132 6 210 37 56 23 110 36 159 40 94 8 105 0 85 -57 -27 -73 -29 -174 -5 -241
30 -85 28 -123 -10 -162 -33 -34 -55 -107 -66 -217 -5 -50 -11 -64 -48 -105
-40 -45 -95 -135 -95 -157 0 -6 -19 -49 -41 -95 -87 -177 -194 -301 -338 -390
-266 -165 -355 -239 -406 -339 -12 -25 -37 -93 -55 -150 -46 -147 -92 -243
-164 -341 -35 -47 -77 -106 -94 -131 -17 -26 -52 -71 -77 -100 -112 -129 -130
-255 -55 -365 60 -87 270 -210 408 -239 276 -59 722 76 722 218 0 49 -26 117
-58 150 -35 37 -137 89 -230 116 -40 12 -75 28 -78 36 -20 52 77 208 281 451
111 131 202 195 490 344 61 31 142 77 180 102 39 25 88 54 110 66 22 11 48 29
59 41 10 11 35 24 55 27 34 6 105 39 143 66 32 23 41 -3 24 -70 -9 -33 -16
-72 -16 -86 0 -38 -31 -93 -95 -172 -121 -149 -197 -257 -235 -336 -34 -69
-40 -92 -40 -144 0 -55 6 -73 42 -141 72 -136 85 -166 108 -253 58 -220 204
-403 395 -495 164 -80 367 -104 511 -60 60 18 149 86 184 142 83 130 51 292
-69 352 -20 10 -85 28 -146 41 -135 27 -178 44 -210 82 -22 27 -25 38 -25 117
0 138 60 318 143 426 17 22 99 109 181 193 131 134 170 166 294 248 79 52 151
94 160 94 23 0 69 -76 88 -147 32 -116 35 -139 36 -228 1 -81 -2 -101 -37
-195 -126 -347 -155 -453 -162 -605 l-6 -120 37 -73 c46 -91 95 -139 196 -192
68 -35 95 -43 175 -52 81 -9 105 -8 167 7 89 21 112 33 162 82 58 57 80 113
81 205 0 71 -2 79 -28 106 -16 16 -47 37 -70 47 -89 36 -92 39 -91 76 2 50 73
203 125 265 48 60 112 109 128 100 5 -3 19 -37 31 -74 13 -37 31 -80 40 -97
26 -43 86 -190 132 -323 94 -273 175 -388 322 -452 125 -56 309 -66 452 -25
115 33 171 68 209 130 28 45 30 55 29 139 0 72 -5 100 -21 132 -44 83 -147
146 -268 163 -28 4 -57 11 -64 15 -23 15 -51 92 -61 172 -9 68 -8 80 9 108 37
62 80 247 81 351 0 58 9 67 50 55 19 -6 73 -10 120 -10 129 -1 233 -16 245
-37 6 -9 26 -34 45 -54 19 -20 71 -78 115 -128 44 -51 94 -101 110 -111 17
-11 47 -33 68 -49 21 -16 73 -43 115 -59 67 -26 290 -89 377 -107 54 -11 116
-38 112 -48 -2 -6 -21 -16 -43 -23 -21 -7 -112 -36 -202 -64 -154 -49 -189
-68 -166 -90 5 -5 109 22 234 60 181 54 229 65 247 57 13 -6 23 -17 23 -26 0
-9 -117 -121 -261 -250 -243 -220 -277 -257 -242 -268 7 -3 128 103 270 234
142 132 266 244 276 249 13 8 33 6 70 -7 29 -10 67 -18 85 -19 19 0 35 -6 38
-15 4 -9 -62 -135 -159 -305 -91 -159 -167 -297 -169 -307 -5 -28 36 -29 54
-1 9 13 86 155 173 316 120 224 162 293 179 296 11 3 44 7 72 10 70 7 229 61
295 100 53 31 75 62 114 157 8 18 36 34 123 70 119 48 142 62 122 74 -6 4 -59
-12 -117 -35 -58 -23 -112 -39 -119 -36 -8 3 -14 16 -14 29 0 17 18 36 67 73
83 60 105 82 98 94 -10 16 -18 12 -100 -50 -43 -33 -83 -59 -89 -57 -19 7 -9
211 16 320 21 95 21 100 5 170 -10 40 -20 128 -23 197 -5 108 -10 133 -34 187
-35 76 -36 73 100 171 103 73 140 117 140 168 0 75 -73 114 -215 114 -59 0
-65 2 -84 29 -36 50 -67 56 -205 42 -112 -12 -224 -30 -288 -46 -23 -6 -36 2
-101 62 -64 57 -95 77 -199 122 -407 180 -438 198 -438 260 0 30 -9 43 -69
100 -124 118 -235 227 -267 262 -114 125 -304 282 -381 314 -21 9 -49 27 -63
40 -34 32 -188 115 -214 115 -12 0 -45 12 -75 25 -30 14 -71 30 -90 34 -53 13
-186 72 -268 118 -65 37 -136 94 -366 291 -43 37 -93 76 -111 87 -18 11 -52
37 -77 57 -25 21 -72 49 -105 63 -32 15 -71 33 -85 40 -60 33 -314 115 -355
115 -23 0 -54 4 -67 9 -13 5 -78 17 -144 26 -108 16 -151 16 -464 5 -501 -19
-606 -25 -684 -43 -262 -61 -298 -75 -329 -121 -18 -29 -131 -75 -200 -83 -28
-3 -89 -21 -136 -40 -47 -19 -98 -39 -115 -45 -42 -14 -261 -19 -313 -7 -55
12 -105 -1 -162 -42 -43 -32 -44 -32 -164 -30 -201 2 -222 9 -336 107 -40 35
-209 103 -273 110 -51 6 -66 13 -119 58 -101 86 -133 182 -126 377 l4 114 56
105 c31 58 59 125 63 150 4 25 20 65 35 90 15 25 31 56 35 70 4 14 20 50 35
80 15 30 32 77 39 104 7 27 27 81 46 120 65 137 76 182 82 314 9 195 -19 279
-104 314 -51 21 -126 38 -166 38 -17 0 -52 6 -77 14 -63 19 -166 26 -227 15z
m7293 -4903 c13 -22 14 -33 4 -82 -23 -109 -43 -126 -84 -71 -24 32 -27 117
-7 155 17 31 65 30 87 -2z m134 -28 c0 -40 -18 -108 -33 -126 -20 -24 -35 12
-29 70 6 65 17 88 42 88 16 0 20 -7 20 -32z"/>
<g fill="#00ff1a">
<path d="M11079 1701 c-19 -19 -29 -40 -29 -59 0 -16 -3 -31 -6 -35 -4 -3 -29
5 -57 20 -67 34 -180 42 -259 19 -31 -9 -67 -16 -80 -16 -47 0 -143 -58 -210
-128 -73 -75 -114 -147 -128 -224 -19 -98 -37 -108 -201 -108 -146 0 -256 50
-290 132 -10 24 -9 35 6 68 9 21 29 50 44 63 49 46 150 104 193 111 53 9 88
30 88 55 0 35 -24 44 -93 33 -72 -11 -208 -86 -264 -144 -47 -48 -77 -122 -77
-189 -1 -104 70 -172 220 -211 69 -17 90 -18 223 -9 80 6 170 16 199 23 47 11
57 10 80 -5 60 -38 101 -50 187 -57 50 -4 102 -11 118 -15 45 -12 75 1 85 38
l8 32 73 3 c63 2 80 -1 122 -23 59 -30 189 -46 214 -25 19 16 19 54 0 70 -39
33 7 44 177 42 123 -2 128 -1 157 24 27 22 31 32 31 74 0 45 -4 53 -56 109
-31 34 -74 71 -95 83 -43 24 -57 54 -40 86 18 35 12 70 -18 104 -25 28 -35 32
-83 33 -44 0 -60 5 -87 28 -47 39 -111 38 -152 -2z m305 -323 c30 -13 42 -43
26 -63 -26 -31 -80 -3 -80 41 0 19 5 24 27 33 1 1 13 -4 27 -11z"/>
</g></g>
</svg>
