<?xml version="1.0" encoding="UTF-8"?>
<svg xmlns="http://www.w3.org/2000/svg" xmlns:xlink="http://www.w3.org/1999/xlink" width="20px" height="20px" viewBox="0 0 20 20" version="1.1">
<g id="surface1">
<path style=" stroke:none;fill-rule:nonzero;fill:rgb(0%,100%,10.196078%);fill-opacity:1;" d="M 13.851562 0.0078125 C 13.832031 0.0117188 13.761719 0.0234375 13.695312 0.03125 C 13.324219 0.0859375 12.886719 0.261719 12.484375 0.527344 C 12.085938 0.789062 11.789062 1.035156 11.203125 1.59375 C 10.75 2.023438 10.566406 2.183594 10.355469 2.34375 C 9.542969 2.945312 8.390625 3.371094 6.535156 3.75 L 6.292969 3.800781 L 6.152344 3.710938 C 5.289062 3.152344 4.382812 2.742188 3.390625 2.453125 C 3.085938 2.363281 2.644531 2.261719 2.40625 2.226562 C 2.210938 2.195312 1.816406 2.191406 1.671875 2.21875 C 1.054688 2.332031 0.71875 2.753906 0.640625 3.523438 C 0.613281 3.769531 0.628906 4.289062 0.671875 4.703125 C 0.820312 6.136719 1.128906 7.410156 1.648438 8.757812 C 1.851562 9.28125 1.890625 9.425781 1.890625 9.644531 C 1.890625 9.851562 1.816406 10.015625 1.628906 10.234375 C 1.589844 10.285156 1.449219 10.4375 1.316406 10.578125 C 1.1875 10.714844 1.015625 10.914062 0.941406 11.015625 C 0.429688 11.695312 0.132812 12.511719 0.0273438 13.546875 C 0 13.804688 0 14.660156 0.0273438 14.945312 C 0.09375 15.640625 0.1875 16.207031 0.382812 17.070312 C 0.5 17.578125 0.511719 17.636719 0.539062 17.835938 C 0.570312 18.039062 0.613281 18.144531 0.703125 18.226562 C 0.753906 18.277344 0.917969 18.367188 0.933594 18.351562 C 0.9375 18.351562 0.910156 18.265625 0.875 18.164062 C 0.359375 16.628906 0.144531 14.734375 0.335938 13.367188 C 0.433594 12.664062 0.617188 12.125 0.90625 11.703125 C 1.035156 11.507812 1.148438 11.378906 1.292969 11.257812 C 1.945312 10.726562 2.792969 10.710938 3.785156 11.203125 C 4.925781 11.777344 5.707031 12.652344 5.917969 13.609375 C 5.957031 13.792969 5.964844 14.195312 5.933594 14.390625 C 5.808594 15.148438 5.300781 15.714844 4.585938 15.910156 C 4.394531 15.960938 4 15.96875 3.769531 15.921875 C 3.054688 15.785156 2.429688 15.285156 2.101562 14.585938 C 2.0625 14.5 2.003906 14.378906 1.976562 14.316406 C 1.875 14.105469 1.710938 14.015625 1.625 14.121094 C 1.546875 14.21875 1.621094 14.546875 1.792969 14.875 C 1.921875 15.125 2.0625 15.3125 2.296875 15.546875 C 2.65625 15.90625 3.011719 16.109375 3.480469 16.214844 C 3.695312 16.265625 3.882812 16.28125 4.488281 16.296875 C 5.070312 16.3125 5.203125 16.328125 5.429688 16.398438 C 5.609375 16.457031 5.769531 16.535156 5.941406 16.648438 C 6.148438 16.785156 6.285156 16.90625 6.683594 17.28125 C 7.078125 17.652344 7.21875 17.777344 7.417969 17.910156 C 7.601562 18.03125 7.757812 18.109375 7.960938 18.175781 C 8.105469 18.226562 8.253906 18.257812 8.910156 18.382812 C 9.542969 18.503906 9.890625 18.6875 10.125 19.03125 L 10.195312 19.136719 L 10.15625 19.273438 C 10.050781 19.652344 10.003906 19.875 10.019531 19.90625 C 10.039062 19.9375 10.1875 20 10.257812 20 C 10.347656 20 10.359375 19.972656 10.460938 19.574219 C 10.59375 19.027344 10.644531 18.890625 10.78125 18.6875 C 10.953125 18.429688 11.109375 18.238281 11.324219 18.023438 C 11.941406 17.410156 12.703125 17.011719 13.457031 16.914062 C 14.414062 16.789062 15.292969 17.226562 15.773438 18.070312 C 15.980469 18.433594 16.082031 18.824219 16.070312 19.230469 L 16.066406 19.4375 L 16.113281 19.457031 C 16.261719 19.519531 16.457031 19.414062 16.519531 19.238281 C 16.546875 19.15625 16.546875 18.914062 16.515625 18.742188 C 16.441406 18.316406 16.167969 17.746094 15.84375 17.34375 C 15.746094 17.226562 15.496094 16.976562 15.34375 16.84375 L 15.257812 16.773438 L 15.628906 16.125 C 16.734375 14.179688 16.832031 14.019531 16.980469 13.886719 C 17.125 13.753906 17.320312 13.714844 17.507812 13.785156 C 17.628906 13.828125 17.796875 13.996094 17.867188 14.140625 C 18.015625 14.449219 17.996094 14.710938 17.769531 15.339844 C 17.585938 15.847656 17.546875 16.058594 17.5625 16.464844 C 17.574219 16.867188 17.65625 17.203125 17.839844 17.578125 C 18.070312 18.054688 18.402344 18.4375 18.820312 18.71875 C 19.011719 18.851562 19.1875 18.933594 19.414062 19.007812 C 19.695312 19.105469 19.839844 19.085938 19.941406 18.9375 L 19.988281 18.871094 L 19.984375 18.503906 C 19.980469 17.472656 19.722656 16.398438 19.246094 15.414062 C 19.085938 15.082031 18.949219 14.84375 18.738281 14.523438 C 18.523438 14.199219 18.359375 13.988281 18.023438 13.609375 C 17.71875 13.261719 17.59375 13.089844 17.492188 12.882812 C 17.390625 12.671875 17.355469 12.511719 17.355469 12.265625 C 17.355469 12.015625 17.378906 11.871094 17.5 11.386719 C 17.664062 10.75 17.722656 10.398438 17.742188 9.917969 C 17.777344 9.136719 17.664062 8.417969 17.371094 7.558594 C 17.320312 7.40625 17.171875 7.019531 17.039062 6.691406 C 16.472656 5.265625 16.398438 4.953125 16.332031 3.671875 C 16.292969 2.933594 16.261719 2.601562 16.210938 2.296875 C 16.089844 1.5625 15.820312 0.980469 15.417969 0.578125 C 15.128906 0.289062 14.828125 0.121094 14.445312 0.0390625 C 14.332031 0.015625 13.933594 -0.00390625 13.851562 0.0078125 Z M 14.335938 0.617188 C 14.992188 0.859375 15.53125 1.6875 15.757812 2.789062 C 15.925781 3.617188 15.890625 4.414062 15.652344 5.117188 C 15.597656 5.269531 15.589844 5.359375 15.628906 5.429688 C 15.640625 5.453125 15.714844 5.5625 15.796875 5.671875 C 16.679688 6.859375 16.957031 7.550781 17.125 8.96875 C 17.222656 9.765625 17.210938 10.46875 17.085938 11.359375 C 17.015625 11.867188 16.875 12.460938 16.78125 12.640625 C 16.769531 12.664062 16.703125 12.851562 16.632812 13.054688 C 16.566406 13.261719 16.472656 13.507812 16.429688 13.601562 C 16.128906 14.277344 15.648438 14.847656 14.957031 15.347656 C 14.59375 15.617188 14.257812 15.804688 13.578125 16.125 C 11.9375 16.90625 11.261719 17.140625 10.453125 17.21875 C 10.179688 17.246094 9.570312 17.230469 9.300781 17.1875 C 8.722656 17.097656 8.0625 16.90625 7.355469 16.621094 C 6.640625 16.335938 5.902344 15.96875 5.839844 15.867188 C 5.800781 15.808594 5.820312 15.761719 5.925781 15.671875 C 5.976562 15.628906 6.054688 15.542969 6.097656 15.480469 C 6.144531 15.417969 6.214844 15.324219 6.25 15.273438 C 6.335938 15.160156 6.414062 14.996094 6.449219 14.867188 C 6.484375 14.734375 6.496094 14.414062 6.472656 14.226562 C 6.445312 14.003906 6.390625 13.75 6.292969 13.402344 C 6.101562 12.71875 5.953125 12.390625 5.691406 12.078125 C 5.644531 12.023438 5.570312 11.929688 5.527344 11.875 C 5.484375 11.820312 5.40625 11.726562 5.351562 11.667969 C 5.203125 11.503906 5.203125 11.46875 5.351562 11.296875 C 5.40625 11.230469 5.507812 11.113281 5.578125 11.03125 C 5.921875 10.636719 6.1875 10.230469 6.636719 9.417969 C 7.070312 8.632812 7.222656 8.058594 7.332031 6.835938 C 7.394531 6.140625 7.390625 5.851562 7.3125 5.539062 C 7.242188 5.273438 7.054688 4.855469 6.933594 4.695312 C 6.855469 4.59375 6.832031 4.539062 6.832031 4.460938 C 6.832031 4.398438 6.839844 4.382812 6.902344 4.3125 C 7.050781 4.15625 7.335938 4.050781 8.175781 3.847656 C 8.769531 3.703125 9.582031 3.570312 10.015625 3.546875 C 10.171875 3.539062 10.25 3.53125 10.289062 3.507812 C 10.398438 3.457031 10.585938 3.242188 10.796875 2.925781 C 10.90625 2.757812 11.054688 2.554688 11.121094 2.472656 C 11.285156 2.277344 11.71875 1.835938 11.917969 1.660156 C 12.480469 1.164062 13.292969 0.6875 13.753906 0.585938 C 13.925781 0.546875 14.191406 0.5625 14.335938 0.617188 Z M 2.425781 3.867188 C 2.625 3.902344 2.832031 3.976562 3.046875 4.089844 C 3.734375 4.449219 4.039062 4.796875 4.128906 5.328125 C 4.175781 5.621094 4.082031 5.929688 3.839844 6.25 C 3.648438 6.507812 3.179688 6.914062 2.953125 7.027344 C 2.683594 7.160156 2.480469 7.042969 2.21875 6.601562 C 1.988281 6.21875 1.816406 5.84375 1.714844 5.496094 C 1.644531 5.269531 1.523438 4.726562 1.5 4.554688 C 1.457031 4.191406 1.625 3.921875 1.9375 3.859375 C 2.050781 3.839844 2.28125 3.84375 2.425781 3.867188 Z M 2.425781 3.867188 "/>
<path style=" stroke:none;fill-rule:nonzero;fill:rgb(0%,100%,10.196078%);fill-opacity:1;" d="M 13.839844 1.515625 C 13.726562 1.535156 13.5 1.613281 13.386719 1.671875 C 12.984375 1.875 12.550781 2.28125 12.191406 2.800781 C 11.976562 3.109375 11.898438 3.28125 11.898438 3.457031 C 11.898438 3.664062 12.007812 3.777344 12.328125 3.914062 C 12.40625 3.945312 12.722656 4.101562 13.03125 4.253906 C 13.339844 4.40625 13.636719 4.550781 13.6875 4.570312 C 13.964844 4.671875 14.222656 4.683594 14.40625 4.597656 C 14.753906 4.433594 14.933594 3.949219 14.910156 3.234375 C 14.902344 2.9375 14.878906 2.773438 14.777344 2.320312 C 14.707031 2.015625 14.691406 1.953125 14.625 1.828125 C 14.492188 1.566406 14.210938 1.457031 13.839844 1.515625 Z M 13.9375 2.050781 C 14.039062 2.15625 14.097656 2.335938 14.21875 2.90625 C 14.292969 3.253906 14.324219 3.519531 14.324219 3.820312 C 14.328125 4.050781 14.324219 4.078125 14.300781 4.109375 C 14.242188 4.171875 14.121094 4.144531 13.777344 4 C 13.449219 3.859375 13.179688 3.695312 12.875 3.460938 C 12.621094 3.261719 12.570312 3.167969 12.652344 3.015625 C 12.710938 2.90625 13.054688 2.46875 13.199219 2.316406 C 13.417969 2.09375 13.605469 1.984375 13.789062 1.984375 C 13.867188 1.984375 13.878906 1.988281 13.9375 2.050781 Z M 13.9375 2.050781 "/>
<path style=" stroke:none;fill-rule:nonzero;fill:rgb(0%,100%,10.196078%);fill-opacity:1;" d="M 13.910156 8.945312 C 13.855469 8.964844 13.738281 9.035156 13.644531 9.097656 C 13.546875 9.164062 13.410156 9.253906 13.335938 9.304688 C 13.183594 9.402344 13.046875 9.539062 12.992188 9.652344 C 12.9375 9.765625 12.929688 9.921875 12.980469 10.015625 C 13.035156 10.121094 13.117188 10.175781 13.21875 10.183594 C 13.300781 10.191406 13.308594 10.1875 13.359375 10.132812 C 13.394531 10.097656 13.433594 10.023438 13.476562 9.910156 C 13.585938 9.628906 13.664062 9.535156 13.882812 9.433594 C 14.058594 9.347656 14.160156 9.367188 14.34375 9.519531 C 14.394531 9.5625 14.457031 9.605469 14.484375 9.621094 C 14.550781 9.65625 14.703125 9.65625 14.773438 9.621094 C 14.878906 9.5625 14.914062 9.417969 14.855469 9.296875 C 14.808594 9.207031 14.664062 9.085938 14.519531 9.015625 C 14.273438 8.898438 14.078125 8.875 13.910156 8.945312 Z M 13.910156 8.945312 "/>
<path style=" stroke:none;fill-rule:nonzero;fill:rgb(0%,100%,10.196078%);fill-opacity:1;" d="M 15.644531 10.445312 C 15.433594 10.480469 14.929688 10.648438 14.757812 10.734375 C 14.683594 10.773438 14.632812 10.835938 14.632812 10.894531 C 14.632812 10.953125 14.683594 11.050781 14.742188 11.101562 C 14.824219 11.164062 14.898438 11.15625 15.109375 11.054688 C 15.261719 10.980469 15.304688 10.964844 15.453125 10.945312 C 15.589844 10.925781 15.652344 10.90625 15.742188 10.863281 C 15.875 10.796875 15.886719 10.777344 15.890625 10.613281 C 15.894531 10.519531 15.886719 10.496094 15.863281 10.472656 C 15.816406 10.429688 15.769531 10.421875 15.644531 10.445312 Z M 15.644531 10.445312 "/>
<path style=" stroke:none;fill-rule:nonzero;fill:rgb(0%,100%,10.196078%);fill-opacity:1;" d="M 7.753906 10.835938 C 7.734375 10.839844 7.671875 10.851562 7.621094 10.859375 C 7.398438 10.898438 7.171875 11.066406 7.015625 11.300781 C 6.785156 11.648438 6.769531 11.785156 6.941406 11.902344 C 7.011719 11.949219 7.109375 11.949219 7.179688 11.902344 C 7.210938 11.878906 7.253906 11.824219 7.292969 11.75 C 7.375 11.597656 7.585938 11.382812 7.710938 11.320312 C 7.890625 11.234375 8.046875 11.238281 8.300781 11.335938 C 8.472656 11.398438 8.550781 11.40625 8.648438 11.355469 C 8.777344 11.285156 8.789062 11.183594 8.675781 11.054688 C 8.582031 10.945312 8.5 10.914062 8.222656 10.867188 C 8.078125 10.84375 7.816406 10.828125 7.753906 10.835938 Z M 7.753906 10.835938 "/>
<path style=" stroke:none;fill-rule:nonzero;fill:rgb(0%,100%,10.196078%);fill-opacity:1;" d="M 15.707031 11.386719 C 15.1875 11.527344 15.179688 11.53125 15.125 11.585938 C 15.070312 11.644531 15.046875 11.722656 15.070312 11.765625 C 15.078125 11.78125 15.109375 11.800781 15.136719 11.8125 C 15.226562 11.84375 15.3125 11.832031 15.488281 11.765625 C 15.644531 11.703125 15.671875 11.699219 15.839844 11.695312 C 16.066406 11.6875 16.21875 11.660156 16.25 11.628906 C 16.3125 11.558594 16.300781 11.433594 16.222656 11.351562 C 16.175781 11.304688 16.160156 11.296875 16.09375 11.296875 C 16.050781 11.300781 15.878906 11.339844 15.707031 11.386719 Z M 15.707031 11.386719 "/>
<path style=" stroke:none;fill-rule:nonzero;fill:rgb(0%,100%,10.196078%);fill-opacity:1;" d="M 11.355469 11.445312 C 10.949219 11.519531 10.585938 11.75 10.382812 12.0625 C 10.28125 12.21875 10.261719 12.355469 10.316406 12.476562 C 10.382812 12.617188 10.523438 12.699219 10.816406 12.757812 C 11.230469 12.847656 11.308594 12.875 11.332031 12.941406 C 11.363281 13.019531 11.429688 13.550781 11.429688 13.707031 C 11.429688 13.859375 11.425781 13.890625 11.371094 14.046875 C 11.28125 14.320312 11.179688 14.449219 10.988281 14.539062 C 10.6875 14.675781 10.3125 14.582031 9.992188 14.289062 C 9.914062 14.21875 9.824219 14.148438 9.796875 14.140625 C 9.710938 14.113281 9.640625 14.152344 9.589844 14.257812 C 9.554688 14.335938 9.550781 14.359375 9.554688 14.453125 C 9.570312 14.628906 9.667969 14.757812 9.875 14.863281 C 10.121094 14.988281 10.382812 15.039062 10.722656 15.027344 C 11.171875 15.011719 11.398438 14.898438 11.542969 14.621094 C 11.660156 14.390625 11.789062 14.25 11.921875 14.21875 C 11.976562 14.203125 11.996094 14.203125 12.085938 14.234375 C 12.179688 14.269531 12.21875 14.273438 12.492188 14.277344 C 12.660156 14.28125 12.886719 14.277344 13 14.265625 C 13.242188 14.246094 13.316406 14.21875 13.460938 14.085938 C 13.515625 14.035156 13.628906 13.9375 13.707031 13.867188 C 13.90625 13.703125 13.925781 13.667969 13.964844 13.351562 C 13.984375 13.207031 13.992188 13.078125 13.984375 13.035156 C 13.972656 12.949219 13.90625 12.871094 13.824219 12.847656 C 13.742188 12.820312 13.582031 12.824219 13.519531 12.851562 C 13.421875 12.890625 13.410156 12.921875 13.398438 13.128906 C 13.382812 13.34375 13.339844 13.539062 13.289062 13.613281 C 13.242188 13.679688 13.128906 13.746094 13 13.785156 C 12.859375 13.828125 12.585938 13.832031 12.429688 13.792969 C 12.195312 13.730469 12.007812 13.59375 11.953125 13.445312 C 11.941406 13.40625 11.921875 13.300781 11.914062 13.210938 C 11.878906 12.917969 11.929688 12.71875 12.113281 12.378906 C 12.296875 12.050781 12.324219 11.980469 12.332031 11.84375 C 12.335938 11.734375 12.335938 11.722656 12.292969 11.652344 C 12.203125 11.511719 11.9375 11.421875 11.632812 11.421875 C 11.542969 11.421875 11.417969 11.433594 11.355469 11.445312 Z M 11.355469 11.445312 "/>
<path style=" stroke:none;fill-rule:nonzero;fill:rgb(0%,100%,10.196078%);fill-opacity:1;" d="M 15.367188 12.59375 C 15.296875 12.617188 15.226562 12.6875 15.226562 12.742188 C 15.226562 12.804688 15.265625 12.882812 15.324219 12.929688 C 15.375 12.96875 15.378906 12.972656 15.476562 12.960938 C 15.699219 12.929688 15.761719 12.941406 15.917969 13.019531 C 16.078125 13.101562 16.136719 13.109375 16.222656 13.070312 C 16.289062 13.039062 16.433594 12.886719 16.433594 12.847656 C 16.433594 12.757812 16.277344 12.671875 16.03125 12.625 C 15.851562 12.585938 15.453125 12.570312 15.367188 12.59375 Z M 15.367188 12.59375 "/>
<path style=" stroke:none;fill-rule:nonzero;fill:rgb(0%,100%,10.196078%);fill-opacity:1;" d="M 7.589844 12.796875 C 7.324219 12.890625 6.992188 13.09375 6.84375 13.25 C 6.753906 13.34375 6.707031 13.441406 6.726562 13.492188 C 6.746094 13.535156 6.816406 13.550781 6.90625 13.535156 C 7.011719 13.511719 7.695312 13.226562 7.789062 13.164062 C 7.898438 13.09375 7.910156 12.902344 7.8125 12.800781 C 7.773438 12.757812 7.714844 12.757812 7.589844 12.796875 Z M 7.589844 12.796875 "/>
<path style=" stroke:none;fill-rule:nonzero;fill:rgb(0%,100%,10.196078%);fill-opacity:1;" d="M 7.550781 13.792969 C 7.53125 13.796875 7.457031 13.816406 7.390625 13.835938 C 7.085938 13.9375 6.859375 14.1875 6.910156 14.375 C 6.933594 14.453125 7.007812 14.542969 7.070312 14.554688 C 7.136719 14.570312 7.265625 14.503906 7.359375 14.40625 C 7.398438 14.359375 7.449219 14.316406 7.464844 14.308594 C 7.484375 14.296875 7.578125 14.289062 7.683594 14.289062 C 7.847656 14.289062 7.882812 14.28125 7.9375 14.253906 C 8.046875 14.195312 8.074219 14.109375 8.023438 13.992188 C 7.949219 13.832031 7.769531 13.757812 7.550781 13.792969 Z M 7.550781 13.792969 "/>
<path style=" stroke:none;fill-rule:nonzero;fill:rgb(0%,100%,10.196078%);fill-opacity:1;" d="M 7.746094 14.796875 C 7.675781 14.828125 7.582031 14.914062 7.390625 15.132812 C 7.210938 15.335938 7.1875 15.429688 7.289062 15.53125 C 7.429688 15.671875 7.695312 15.59375 7.84375 15.375 C 7.898438 15.292969 7.9375 15.269531 8.066406 15.242188 C 8.285156 15.195312 8.347656 15.144531 8.347656 15.015625 C 8.347656 14.925781 8.320312 14.890625 8.214844 14.84375 C 8.144531 14.8125 7.921875 14.765625 7.851562 14.765625 C 7.828125 14.765625 7.78125 14.78125 7.746094 14.796875 Z M 7.746094 14.796875 "/>
<path style=" stroke:none;fill-rule:nonzero;fill:rgb(0%,100%,10.196078%);fill-opacity:1;" d="M 4.695312 13.007812 C 4.640625 13.03125 4.636719 13.042969 4.644531 13.15625 C 4.652344 13.304688 4.753906 13.488281 4.925781 13.65625 C 5.058594 13.792969 5.164062 13.851562 5.238281 13.835938 C 5.304688 13.820312 5.386719 13.742188 5.410156 13.679688 C 5.433594 13.609375 5.414062 13.550781 5.316406 13.402344 C 5.167969 13.175781 5.03125 13.058594 4.863281 13.007812 C 4.761719 12.980469 4.757812 12.980469 4.695312 13.007812 Z M 4.695312 13.007812 "/>
<path style=" stroke:none;fill-rule:nonzero;fill:rgb(0%,100%,10.196078%);fill-opacity:1;" d="M 3.660156 13.445312 C 3.640625 13.460938 3.613281 13.496094 3.601562 13.523438 C 3.5625 13.617188 3.574219 13.648438 3.675781 13.738281 C 3.785156 13.832031 3.832031 13.902344 3.882812 14.058594 C 3.953125 14.261719 4.011719 14.304688 4.175781 14.289062 C 4.308594 14.273438 4.335938 14.242188 4.324219 14.132812 C 4.308594 13.988281 4.242188 13.839844 4.140625 13.726562 C 3.988281 13.5625 3.792969 13.421875 3.71875 13.421875 C 3.707031 13.421875 3.679688 13.433594 3.660156 13.445312 Z M 3.660156 13.445312 "/>
<path style=" stroke:none;fill-rule:nonzero;fill:rgb(0%,100%,10.196078%);fill-opacity:1;" d="M 2.632812 13.945312 C 2.59375 14.007812 2.609375 14.109375 2.6875 14.222656 C 2.773438 14.359375 2.820312 14.46875 2.867188 14.640625 C 2.890625 14.71875 2.917969 14.796875 2.929688 14.8125 C 2.945312 14.828125 2.984375 14.835938 3.027344 14.835938 C 3.089844 14.835938 3.105469 14.828125 3.152344 14.78125 C 3.28125 14.636719 3.210938 14.328125 2.992188 14.09375 C 2.824219 13.914062 2.6875 13.859375 2.632812 13.945312 Z M 2.632812 13.945312 "/>
</g>
</svg>
