<?xml version="1.0" encoding="UTF-8"?>

<svg xmlns="http://www.w3.org/2000/svg" xmlns:xlink="http://www.w3.org/1999/xlink" transform="rotate(135)" width="27px" height="32px" viewBox="0 0 27 31" version="1.1">
<g id="surface1"  >
<path style=" stroke:none;fill-rule:nonzero;fill:rgb(4, 217, 255);fill-opacity:1;" d="M 12.066406 0.0234375 C 10.519531 0.179688 9.113281 0.832031 7.742188 2.023438 C 7.613281 2.132812 7.195312 2.539062 6.816406 2.921875 C 5.722656 4.03125 5.035156 4.667969 4.300781 5.242188 C 3.136719 6.160156 2.25 6.59375 1.554688 6.59375 C 1.167969 6.59375 0.988281 6.53125 0.59375 6.234375 C 0.289062 6.007812 0.191406 5.980469 0.0742188 6.097656 C -0.0234375 6.191406 -0.0234375 6.269531 0.0742188 6.460938 C 0.265625 6.835938 0.851562 7.203125 1.453125 7.328125 C 2.242188 7.492188 3.339844 7.203125 4.464844 6.53125 C 5.234375 6.070312 5.859375 5.574219 7.570312 4.054688 C 8.90625 2.875 9.734375 2.285156 10.554688 1.941406 C 11.085938 1.71875 11.476562 1.625 11.992188 1.605469 C 13.3125 1.554688 14.707031 2.078125 15.875 3.066406 C 16.140625 3.292969 16.800781 3.945312 16.777344 3.964844 C 16.773438 3.96875 16.617188 4.019531 16.4375 4.070312 C 14.570312 4.597656 12.921875 5.910156 11.742188 7.808594 C 11.128906 8.800781 10.636719 10.042969 10.367188 11.273438 C 10.027344 12.828125 9.996094 14.386719 10.269531 16.046875 L 10.304688 16.269531 L 10.207031 16.472656 C 9.664062 17.625 9.773438 18.898438 10.503906 19.980469 C 10.695312 20.265625 11.152344 20.714844 11.4375 20.90625 L 11.644531 21.046875 L 11.808594 21.464844 C 12.414062 23 13.273438 24.753906 13.992188 25.90625 C 14.078125 26.042969 14.136719 26.15625 14.128906 26.15625 C 14.117188 26.15625 13.984375 26.136719 13.832031 26.113281 C 13.472656 26.0625 12.375 26.054688 12.054688 26.101562 C 11.523438 26.183594 11.078125 26.320312 10.636719 26.53125 C 10.242188 26.722656 10.035156 26.878906 10.035156 26.976562 C 10.035156 27.046875 10.097656 27.125 10.15625 27.125 C 10.175781 27.125 10.269531 27.070312 10.367188 27.003906 C 11.054688 26.539062 12.0625 26.292969 13.101562 26.335938 C 13.535156 26.351562 14.316406 26.457031 14.359375 26.5 C 14.386719 26.527344 14.792969 27.109375 14.785156 27.113281 C 14.78125 27.117188 14.667969 27.128906 14.535156 27.148438 C 14.171875 27.1875 13.953125 27.238281 13.582031 27.359375 C 12.757812 27.625 11.925781 28.148438 11.199219 28.855469 C 10.882812 29.160156 10.84375 29.226562 10.9375 29.3125 C 11.015625 29.394531 11.078125 29.359375 11.378906 29.066406 C 12.378906 28.101562 13.503906 27.53125 14.621094 27.414062 C 15.015625 27.375 14.980469 27.363281 15.179688 27.605469 L 15.355469 27.824219 L 15.140625 27.875 C 14.125 28.117188 13.351562 29.125 13.015625 30.632812 C 12.976562 30.8125 12.972656 30.867188 12.996094 30.910156 C 13.027344 30.972656 13.0625 31 13.117188 31 C 13.207031 31 13.242188 30.9375 13.300781 30.671875 C 13.375 30.308594 13.53125 29.859375 13.691406 29.53125 C 14 28.898438 14.386719 28.484375 14.875 28.261719 C 15.058594 28.175781 15.375 28.09375 15.515625 28.09375 C 15.554688 28.09375 15.6875 28.207031 15.988281 28.503906 C 17.273438 29.761719 18.261719 30.015625 19.359375 29.375 C 19.738281 29.152344 20 28.941406 20.5 28.449219 L 20.992188 27.960938 L 21.347656 27.960938 C 21.652344 27.960938 21.734375 27.96875 21.890625 28.015625 C 22.640625 28.242188 23.207031 28.910156 23.570312 29.984375 C 23.621094 30.128906 23.730469 30.546875 23.75 30.6875 C 23.78125 30.851562 23.941406 30.90625 24.015625 30.777344 C 24.097656 30.628906 23.78125 29.613281 23.480469 29.074219 C 23 28.203125 22.320312 27.726562 21.476562 27.667969 L 21.230469 27.652344 L 21.304688 27.546875 C 21.496094 27.28125 21.484375 27.292969 21.769531 27.261719 C 22.167969 27.226562 22.707031 27.285156 23.148438 27.414062 C 23.476562 27.507812 23.589844 27.550781 23.9375 27.722656 C 24.558594 28.019531 25.050781 28.367188 25.59375 28.886719 C 25.851562 29.132812 25.941406 29.207031 25.992188 29.207031 C 26.070312 29.207031 26.140625 29.117188 26.113281 29.046875 C 26.0625 28.90625 25.515625 28.398438 25.058594 28.066406 C 24.34375 27.546875 23.582031 27.199219 22.839844 27.050781 C 22.65625 27.015625 22.4375 26.996094 22.15625 26.988281 C 21.929688 26.980469 21.742188 26.96875 21.746094 26.957031 C 21.746094 26.949219 21.820312 26.839844 21.914062 26.714844 L 22.078125 26.484375 L 22.335938 26.417969 C 22.660156 26.332031 23.246094 26.234375 23.617188 26.203125 C 24.769531 26.109375 25.875 26.339844 26.625 26.84375 C 26.835938 26.984375 26.894531 26.996094 26.964844 26.910156 C 27.042969 26.8125 26.964844 26.714844 26.636719 26.519531 C 26.125 26.214844 25.464844 26.007812 24.753906 25.9375 C 24.394531 25.898438 23.5 25.921875 23.148438 25.976562 C 23.007812 25.996094 22.765625 26.039062 22.609375 26.070312 C 22.453125 26.105469 22.324219 26.128906 22.320312 26.121094 C 22.3125 26.117188 22.40625 25.953125 22.527344 25.753906 C 22.882812 25.167969 23.058594 24.851562 23.453125 24.074219 C 23.960938 23.070312 24.457031 21.960938 24.792969 21.066406 L 24.878906 20.832031 L 25.066406 20.703125 C 25.335938 20.523438 25.820312 20.039062 26 19.773438 C 26.351562 19.253906 26.539062 18.726562 26.605469 18.078125 C 26.664062 17.496094 26.550781 16.859375 26.28125 16.285156 L 26.1875 16.089844 L 26.222656 15.898438 C 26.335938 15.210938 26.363281 14.796875 26.367188 13.902344 C 26.367188 12.851562 26.316406 12.304688 26.140625 11.457031 C 25.625 8.917969 24.335938 6.734375 22.53125 5.335938 C 21.738281 4.722656 20.683594 4.214844 19.746094 3.996094 L 19.511719 3.941406 L 19.378906 3.726562 C 18.894531 2.953125 18.089844 2.136719 17.199219 1.519531 C 16.101562 0.753906 14.875 0.25 13.65625 0.0703125 C 13.273438 0.015625 12.421875 -0.0078125 12.066406 0.0234375 Z M 12.066406 0.0234375 "/>
</g>
</svg>

