<?xml version="1.0" encoding="UTF-8"?>
<svg xmlns="http://www.w3.org/2000/svg" xmlns:xlink="http://www.w3.org/1999/xlink" width="32px" height="32px" viewBox="0 0 32 32" version="1.1">
<g id="surface1">
<path style=" stroke:none;fill-rule:nonzero;fill:rgb(0, 255, 26);fill-opacity:1;" d="M 11.539062 0.808594 C 11.121094 0.90625 10.804688 1.089844 10.449219 1.449219 C 10.15625 1.734375 9.949219 2.027344 9.75 2.425781 C 8.558594 4.808594 8.960938 8.746094 10.632812 11 C 10.859375 11.308594 11.253906 11.710938 11.523438 11.914062 C 12.410156 12.582031 13.40625 12.617188 14.203125 12.011719 C 15.019531 11.386719 15.578125 10.179688 15.792969 8.585938 C 15.84375 8.175781 15.855469 6.90625 15.804688 6.488281 C 15.601562 4.734375 15.078125 3.28125 14.261719 2.183594 C 14.054688 1.910156 13.652344 1.5 13.398438 1.308594 C 13.164062 1.128906 12.71875 0.898438 12.488281 0.835938 C 12.28125 0.78125 11.734375 0.765625 11.539062 0.808594 Z M 11.539062 0.808594 "/>
<path style=" stroke:none;fill-rule:nonzero;fill:rgb(0, 255, 26);fill-opacity:1;" d="M 21.363281 1.316406 C 20.585938 1.46875 19.773438 2.0625 19.101562 2.96875 C 18.238281 4.128906 17.652344 5.667969 17.433594 7.363281 C 17.363281 7.902344 17.371094 9.109375 17.445312 9.597656 C 17.621094 10.714844 17.992188 11.570312 18.550781 12.125 C 19.027344 12.605469 19.628906 12.828125 20.238281 12.753906 C 21.691406 12.574219 23.121094 10.988281 23.886719 8.714844 C 24.523438 6.828125 24.589844 4.839844 24.070312 3.324219 C 23.5625 1.847656 22.53125 1.082031 21.363281 1.316406 Z M 21.363281 1.316406 "/>
<path style=" stroke:none;fill-rule:nonzero;fill:rgb(0, 255, 26);fill-opacity:1;" d="M 5.238281 9.476562 C 4.214844 9.636719 3.445312 10.460938 3.097656 11.773438 C 2.898438 12.523438 2.871094 13.5625 3.027344 14.476562 C 3.386719 16.601562 4.613281 18.550781 6.070312 19.308594 C 6.816406 19.691406 7.558594 19.761719 8.195312 19.496094 C 9.136719 19.105469 9.753906 18.09375 9.953125 16.613281 C 9.996094 16.316406 9.996094 15.433594 9.953125 15.085938 C 9.628906 12.332031 7.929688 9.914062 6.042969 9.511719 C 5.820312 9.464844 5.425781 9.449219 5.238281 9.476562 Z M 5.238281 9.476562 "/>
<path style=" stroke:none;fill-rule:nonzero;fill:rgb(0, 255, 26);fill-opacity:1;" d="M 26.425781 11.5 C 25.523438 11.691406 24.640625 12.324219 23.910156 13.304688 C 23.113281 14.371094 22.578125 15.761719 22.425781 17.160156 C 22.386719 17.523438 22.390625 18.308594 22.4375 18.664062 C 22.742188 21.03125 24.351562 22.171875 26.175781 21.308594 C 27.152344 20.847656 28.039062 19.894531 28.671875 18.628906 C 29.871094 16.226562 29.792969 13.414062 28.488281 12.113281 C 27.9375 11.5625 27.179688 11.335938 26.425781 11.5 Z M 26.425781 11.5 "/>
<path style=" stroke:none;fill-rule:nonzero;fill:rgb(0, 255, 26);fill-opacity:1;" d="M 15.5625 15.949219 C 13.90625 16.242188 11.820312 17.980469 9.96875 20.601562 C 8.523438 22.652344 7.503906 24.863281 7.199219 26.613281 C 7.125 27.03125 7.117188 27.78125 7.183594 28.070312 C 7.285156 28.515625 7.457031 28.8125 7.792969 29.125 C 8.351562 29.640625 9.023438 29.949219 9.867188 30.066406 C 10.304688 30.125 11.191406 30.101562 11.753906 30.015625 C 12.503906 29.898438 13.140625 29.746094 14.5625 29.335938 C 15.9375 28.941406 16.324219 28.859375 16.703125 28.886719 C 17.183594 28.917969 17.546875 29.035156 18.585938 29.492188 C 19.332031 29.820312 19.746094 29.976562 20.101562 30.0625 C 21.425781 30.382812 22.542969 29.964844 23.691406 28.71875 C 24.03125 28.351562 24.136719 28.171875 24.246094 27.777344 C 24.304688 27.550781 24.308594 27.503906 24.308594 26.976562 C 24.308594 26.496094 24.300781 26.363281 24.253906 26.085938 C 23.957031 24.421875 23.078125 22.40625 21.8125 20.488281 C 20.304688 18.207031 18.535156 16.566406 17.058594 16.078125 C 16.519531 15.898438 16.0625 15.859375 15.5625 15.949219 Z M 15.5625 15.949219 "/>
</g>
</svg>
